<svg xmlns="http://www.w3.org/2000/svg" width="292" height="296" viewBox="0 0 219 222">
  <path fill="#fff" d="M17.215 19.46h183.148v124.407H17.215z"/>
  <path fill="#254aa5" d="M20.738 22.871h176.106v117.406H20.738z"/>
  <path fill="#fff200" d="m105.035 48.453 3.719-2.71 3.715 2.71-1.414-4.387 3.773-2.71h-4.652l-1.422-4.438-1.426 4.441-4.648-.004 3.77 2.711zM85.805 53.621l3.718-2.71 3.711 2.71-1.41-4.387 3.774-2.71h-4.653l-1.425-4.446-1.422 4.45-4.653-.005 3.774 2.711zM75.453 56.184l-1.426 4.445-4.648-.004 3.77 2.71-1.415 4.388 3.72-2.711 3.714 2.71-1.414-4.386 3.773-2.711h-4.652zM70.29 84.219l3.714 2.71-1.41-4.386 3.77-2.711h-4.65l-1.425-4.445-1.422 4.457-4.652-.012 3.773 2.711-1.414 4.387zM76.875 99.098l-1.422-4.446-1.426 4.45-4.648-.004 3.77 2.71-1.415 4.387 3.72-2.718 3.714 2.718-1.414-4.386 3.773-2.711zM90.973 113.195l-1.422-4.441-1.422 4.445-4.652-.004 3.77 2.711-1.411 4.387 3.715-2.715 3.715 2.715-1.41-4.387 3.769-2.71zM110.18 118.305l-1.422-4.446-1.422 4.45-4.652-.004 3.77 2.71-1.411 4.383 3.715-2.71 3.715 2.71-1.414-4.382 3.773-2.711zM129.387 113.195l-1.422-4.441-1.426 4.445-4.648-.004 3.77 2.711-1.415 4.387 3.719-2.715 3.715 2.715-1.414-4.387 3.773-2.71zM143.488 99.098l-1.425-4.446-1.426 4.45-4.649-.004 3.774 2.71-1.414 4.387 3.714-2.718 3.715 2.718-1.418-4.386 3.778-2.711zM153.242 79.777h-4.648l-1.43-4.441-1.422 4.445-4.648-.004 3.773 2.711-1.414 4.387 3.711-2.715 3.719 2.715-1.414-4.387zM138.348 67.664l3.714-2.71 3.715 2.71-1.418-4.387 3.778-2.707h-4.649l-1.425-4.441-1.426 4.45-4.649-.009 3.774 2.707zM128.016 42.086l-1.418 4.445-4.653-.008 3.77 2.715-1.414 4.387 3.722-2.715 3.711 2.715-1.414-4.387 3.778-2.715h-4.66z"/>
  <path fill="#254aa5" d="M9.566 173.805V158.77h3.036v6.675l6.128-6.675h4.082l-5.66 5.855 5.97 9.18h-3.927l-4.132-7.059-2.461 2.516v4.543zM26.957 168.355q-.002 1.623.77 2.485.768.862 1.894.863 1.129-.001 1.895-.863.76-.86.761-2.5c0-1.07-.254-1.887-.761-2.461q-.766-.862-1.895-.863-1.126.001-1.894.863-.772.86-.77 2.476m-2.953-.152q-.001-1.436.707-2.777a4.9 4.9 0 0 1 2.004-2.051c.863-.473 1.832-.707 2.898-.707q2.469 0 4.047 1.602c1.055 1.074 1.582 2.421 1.582 4.058q0 2.472-1.594 4.094c-1.066 1.086-2.402 1.625-4.015 1.625q-1.498.002-2.856-.676a4.6 4.6 0 0 1-2.066-1.984q-.708-1.305-.707-3.184M44.398 173.805v-10.89h2.883v10.89Zm0-12.368v-2.667h2.883v2.667Zm-8.09 1.477h1.598v-.82q0-1.377.293-2.051.294-.678 1.078-1.106.785-.42 1.985-.421 1.228-.002 2.406.367l-.387 2.012a5.7 5.7 0 0 0-1.324-.165q-.625.001-.898.29-.27.292-.27 1.125v.77h2.152v2.265H40.79v8.625h-2.883v-8.625H36.31zM60.23 173.805h-2.882v-5.559q-.001-1.764-.184-2.281a1.64 1.64 0 0 0-.598-.809 1.76 1.76 0 0 0-1-.285q-.751 0-1.343.41a2.05 2.05 0 0 0-.817 1.086q-.222.678-.222 2.504v4.934h-2.88v-10.89h2.676v1.597q1.427-1.845 3.59-1.844.954-.001 1.742.344.792.34 1.196.875.405.532.562 1.21.16.677.16 1.938zM69.16 168.574q-.552.183-1.754.442-1.196.256-1.566.5c-.375.265-.567.605-.567 1.015q.001.608.454 1.047.45.44 1.148.442.781-.001 1.484-.512.526-.392.688-.953c.078-.246.113-.715.113-1.407Zm-3.855-2.34-2.614-.468c.293-1.055.801-1.832 1.516-2.34.719-.508 1.785-.758 3.2-.758q1.926 0 2.87.453c.63.309 1.075.691 1.328 1.16q.387.703.387 2.578l-.031 3.368c0 .957.047 1.66.137 2.117.093.453.265.937.52 1.46h-2.852a12 12 0 0 1-.278-.85 5 5 0 0 0-.101-.34q-.74.722-1.578 1.073c-.563.243-1.16.36-1.797.36-1.121 0-2.004-.3-2.649-.91q-.97-.915-.968-2.309c0-.613.144-1.164.44-1.644.294-.48.704-.852 1.235-1.106.528-.258 1.293-.48 2.293-.676q2.017-.377 2.797-.707v-.285q0-.833-.41-1.183-.41-.357-1.547-.356-.77.002-1.2.3-.43.307-.698 1.063M84.734 173.805h-2.879v-5.559q0-1.764-.183-2.281a1.63 1.63 0 0 0-.602-.809 1.74 1.74 0 0 0-1-.285c-.5 0-.945.137-1.343.41a2.06 2.06 0 0 0-.813 1.086q-.222.678-.223 2.504v4.934h-2.879v-10.89h2.676v1.597q1.425-1.845 3.586-1.844.956-.001 1.746.344.787.34 1.192.875.408.532.566 1.21t.156 1.938zM86.5 173.805v-2.246l4.082-4.688a39 39 0 0 1 1.484-1.633c-.332.024-.773.035-1.32.043l-3.848.024v-2.39h9.004v2.038l-4.164 4.8-1.465 1.59q1.201-.074 1.489-.073h4.46v2.535zM98.16 173.805v-10.89h2.88v10.89Zm0-12.368v-2.667h2.88v2.667zM110.465 167.426q-.034-1.253-.649-1.903a1.99 1.99 0 0 0-1.496-.652q-.943 0-1.558.688-.617.688-.606 1.867Zm-.164 2.91 2.87.48q-.554 1.581-1.75 2.407-1.194.825-2.987.824-2.843.001-4.204-1.856-1.078-1.481-1.078-3.754.001-2.701 1.414-4.238 1.418-1.53 3.579-1.531 2.43 0 3.835 1.602c.938 1.074 1.383 2.71 1.344 4.917h-7.219q.031 1.283.696 1.997.668.709 1.664.71.674.002 1.137-.367.46-.37.699-1.191M118.43 173.805h-2.88v-10.89h2.677v1.546c.457-.73.87-1.215 1.234-1.445a2.26 2.26 0 0 1 1.246-.348q.985 0 1.898.543l-.894 2.512c-.484-.317-.938-.473-1.352-.473q-.607 0-1.027.336c-.277.223-.5.621-.66 1.203q-.241.872-.242 3.649zM128.84 162.914v2.297h-1.973v4.387q0 1.333.059 1.554c.039.145.125.27.258.364a.8.8 0 0 0 .484.144q.398-.001 1.16-.277l.246 2.234c-.672.29-1.43.43-2.277.43q-.78.001-1.406-.262-.622-.258-.914-.676-.294-.41-.407-1.12-.093-.504-.093-2.032v-4.746h-1.32v-2.297h1.32v-2.164l2.89-1.684v3.848zM139.668 173.805l-4.39-10.89h3.027l2.047 5.558.597 1.855q.233-.71.297-.933.14-.465.309-.922l2.07-5.559h2.965l-4.328 10.89zM150.64 168.355q0 1.623.766 2.485.774.862 1.899.863 1.13-.001 1.89-.863.767-.86.766-2.5c0-1.07-.254-1.887-.766-2.461q-.76-.862-1.89-.863-1.125.001-1.899.863-.766.86-.765 2.476m-2.956-.152q.001-1.436.71-2.777a4.84 4.84 0 0 1 2.004-2.051q1.296-.708 2.895-.707 2.474 0 4.05 1.602c1.055 1.074 1.583 2.421 1.583 4.058q-.002 2.472-1.598 4.094c-1.062 1.086-2.398 1.625-4.012 1.625q-1.501.002-2.855-.676a4.6 4.6 0 0 1-2.066-1.984q-.71-1.305-.711-3.184M171.086 173.805h-2.883v-5.559q0-1.764-.183-2.281a1.63 1.63 0 0 0-.602-.809 1.74 1.74 0 0 0-1-.285q-.745 0-1.344.41a2.06 2.06 0 0 0-.812 1.086q-.223.678-.223 2.504v4.934h-2.883v-10.89h2.68v1.597q1.423-1.845 3.59-1.844.95-.001 1.742.344c.523.226.926.52 1.191.875q.41.532.567 1.21.159.677.16 1.938zM182.14 168.121q0 1.745.481 2.524.697 1.126 1.945 1.128.996-.002 1.696-.847.696-.845.695-2.528-.001-1.876-.676-2.703c-.453-.55-1.027-.824-1.734-.824-.684 0-1.254.274-1.719.816q-.689.816-.687 2.434m7.688 5.684h-2.676v-1.602q-.666.933-1.574 1.39-.907.454-1.832.454-1.874 0-3.215-1.512-1.335-1.512-1.336-4.219c0-1.843.434-3.25 1.301-4.21.867-.958 1.969-1.438 3.293-1.438q1.828-.001 3.156 1.516v-5.414h2.883zM199.14 167.426q-.034-1.253-.648-1.903a1.99 1.99 0 0 0-1.496-.652q-.943 0-1.559.688t-.605 1.867Zm-.163 2.91 2.87.48q-.554 1.581-1.75 2.407-1.194.825-2.988.824-2.841.001-4.207-1.856-1.073-1.481-1.074-3.754.001-2.701 1.414-4.238 1.418-1.53 3.578-1.531 2.431 0 3.836 1.602c.938 1.074 1.383 2.71 1.344 4.917h-7.219q.029 1.283.696 1.997.668.709 1.664.71.674.002 1.136-.367.462-.37.7-1.191M207.105 173.805h-2.878v-10.89h2.675v1.546c.457-.73.868-1.215 1.235-1.445a2.26 2.26 0 0 1 1.246-.348q.984 0 1.898.543l-.894 2.512q-.73-.474-1.352-.473-.604 0-1.027.336c-.281.223-.5.621-.66 1.203q-.242.872-.243 3.649zM8.941 199.004v-15.031h11.145v2.543h-8.11v3.332h7.547v2.53h-7.546v4.09h8.398v2.536zM30.094 199.004v-1.633a4.2 4.2 0 0 1-1.563 1.375 4.4 4.4 0 0 1-2.047.504q-1.095.001-1.968-.484c-.582-.32-1-.77-1.262-1.352q-.389-.874-.39-2.41v-6.89h2.882v5.003q.001 2.296.16 2.817.158.515.578.82.422.3 1.067.3.738 0 1.324-.406.585-.406.797-1.003.218-.6.219-2.938v-4.594h2.879v10.89zM38.512 199.004h-2.88v-10.89h2.677v1.546q.684-1.094 1.234-1.445.55-.347 1.246-.348.985 0 1.898.543l-.894 2.512c-.484-.313-.938-.469-1.352-.469q-.607 0-1.027.332c-.277.223-.5.621-.66 1.203q-.241.871-.242 3.653zM46.215 193.559c0 1.082.254 1.906.765 2.48q.774.862 1.899.863 1.13-.001 1.89-.863.767-.86.766-2.5 0-1.6-.765-2.46-.761-.863-1.891-.864-1.125.001-1.899.863-.766.862-.765 2.48m-2.953-.157q-.001-1.435.707-2.777a4.86 4.86 0 0 1 2.004-2.05q1.295-.709 2.894-.708 2.474 0 4.051 1.606 1.582 1.606 1.582 4.054c0 1.649-.531 3.012-1.598 4.098q-1.592 1.624-4.011 1.625-1.499 0-2.856-.68a4.63 4.63 0 0 1-2.066-1.98q-.708-1.307-.707-3.188M59.523 193.375q0 1.834.727 2.71c.484.583 1.078.876 1.773.876q1.008.002 1.672-.805.668-.802.668-2.64 0-1.712-.687-2.543-.685-.827-1.703-.828-1.056-.001-1.754.816-.697.815-.696 2.414m-2.851-5.262h2.687v1.602c.348-.55.82-.992 1.414-1.336a3.9 3.9 0 0 1 1.98-.512c1.267 0 2.337.496 3.22 1.488q1.324 1.489 1.324 4.141 0 2.731-1.336 4.238-1.332 1.517-3.23 1.516a3.7 3.7 0 0 1-1.633-.36q-.734-.357-1.543-1.23v5.485h-2.883zM74.902 186.188v-2.473h2.485v2.472Zm.688 7.585q-.552.184-1.754.442-1.196.258-1.566.504c-.375.265-.567.601-.567 1.011q0 .609.453 1.047.452.44 1.149.442.78-.001 1.484-.512c.352-.262.578-.578.688-.953.078-.246.113-.715.113-1.406Zm-5.094-7.585v-2.473h2.469v2.472Zm1.238 5.25-2.613-.473c.293-1.055.8-1.832 1.516-2.34q1.078-.757 3.199-.758 1.928 0 2.871.457.945.459 1.328 1.156.387.703.387 2.583l-.031 3.363q0 1.433.136 2.117.14.68.52 1.46h-2.852a11 11 0 0 1-.277-.85 5 5 0 0 0-.102-.34q-.74.72-1.578 1.078-.842.358-1.797.359-1.681 0-2.648-.914-.97-.908-.969-2.309c0-.613.145-1.164.442-1.644.293-.48.703-.852 1.234-1.106q.795-.385 2.293-.672 2.016-.379 2.797-.707v-.289q0-.832-.41-1.183-.411-.357-1.547-.356-.77 0-1.2.305-.43.303-.699 1.063M81.262 199.004v-10.89h2.879v10.89Zm0-12.367v-2.664h2.879v2.664zM86.082 195.895l2.89-.438q.183.839.75 1.273.565.439 1.579.438 1.115 0 1.68-.41a.92.92 0 0 0 .378-.77.76.76 0 0 0-.203-.543q-.215-.203-.965-.379-3.486-.767-4.418-1.406-1.294-.879-1.293-2.45 0-1.416 1.118-2.378 1.12-.966 3.465-.965c1.492 0 2.597.242 3.324.727.722.488 1.222 1.203 1.496 2.156l-2.715.5q-.177-.633-.664-.973c-.324-.226-.79-.34-1.387-.34q-1.142 0-1.633.32-.328.226-.328.583.001.309.29.523.387.287 2.69.809 2.303.525 3.216 1.285.902.77.902 2.14 0 1.498-1.254 2.575-1.248 1.078-3.7 1.078-2.227 0-3.523-.902a4.15 4.15 0 0 1-1.695-2.453M108.27 191.332l-2.84.516q-.145-.853-.653-1.286-.506-.429-1.316-.43-1.077 0-1.719.747c-.426.492-.64 1.324-.64 2.484 0 1.293.218 2.203.652 2.739.433.53 1.016.8 1.746.8q.821 0 1.344-.468c.347-.313.594-.844.738-1.606l2.832.484c-.297 1.297-.86 2.282-1.691 2.942q-1.253.996-3.356.996-2.39-.001-3.808-1.508-1.42-1.505-1.422-4.176 0-2.693 1.425-4.199 1.43-1.5 3.856-1.5 1.992 0 3.164.856c.785.57 1.344 1.441 1.688 2.609M113.324 183.973v5.523q1.395-1.629 3.332-1.629.995-.001 1.797.367.798.37 1.203.946.404.571.555 1.273c.098.461.148 1.184.148 2.16v6.39h-2.882v-5.753c0-1.14-.055-1.867-.165-2.172q-.162-.464-.578-.734-.416-.275-1.043-.274c-.476 0-.906.118-1.28.352q-.563.346-.825 1.05c-.176.465-.262 1.16-.262 2.075v5.457h-2.883v-15.031zM129.754 192.625q-.034-1.253-.649-1.902a1.99 1.99 0 0 0-1.496-.653q-.943 0-1.558.688-.617.69-.606 1.867Zm-.164 2.91 2.87.485q-.554 1.575-1.75 2.402-1.194.827-2.987.828-2.842.001-4.207-1.855-1.074-1.488-1.075-3.754.001-2.708 1.414-4.243 1.417-1.53 3.579-1.53 2.43 0 3.836 1.605 1.404 1.603 1.343 4.918h-7.218q.029 1.276.695 1.992.668.715 1.664.715.674-.001 1.137-.371c.308-.247.539-.641.699-1.192M144.863 199.004h-2.879v-5.559q0-1.764-.183-2.28a1.6 1.6 0 0 0-.602-.806q-.415-.288-1-.289c-.5 0-.945.14-1.344.41a2.07 2.07 0 0 0-.812 1.09q-.223.676-.223 2.5v4.934h-2.882v-10.89h2.68v1.6q1.423-1.849 3.585-1.847.955-.001 1.746.344c.528.226.922.52 1.192.875.273.355.46.762.566 1.21q.157.68.156 1.938zM153.621 183.973h3.035v8.14c0 1.29.04 2.13.114 2.512.128.613.44 1.11.93 1.48q.732.561 2.003.56 1.292 0 1.95-.528.655-.528.788-1.297c.086-.512.133-1.363.133-2.555v-8.312h3.035v7.894q0 2.706-.246 3.824-.248 1.119-.906 1.887-.662.769-1.77 1.227-1.108.452-2.89.453-2.156.001-3.27-.496c-.738-.332-1.328-.762-1.757-1.293q-.644-.791-.848-1.664c-.2-.864-.3-2.133-.3-3.817zM178.691 199.004h-2.879v-5.559q0-1.764-.183-2.28a1.6 1.6 0 0 0-.602-.806q-.414-.288-1-.289c-.5 0-.949.14-1.343.41a2.08 2.08 0 0 0-.817 1.09q-.217.676-.219 2.5v4.934h-2.882v-10.89h2.675v1.6q1.43-1.849 3.59-1.847.957-.001 1.742.344.791.34 1.196.875c.27.355.46.762.566 1.21q.157.68.156 1.938zM181.617 199.004v-10.89h2.88v10.89Zm0-12.367v-2.664h2.88v2.664zM189.734 193.559c0 1.082.258 1.906.77 2.48.516.574 1.144.863 1.898.863q1.127-.001 1.891-.863.767-.86.766-2.5.001-1.6-.766-2.46-.763-.863-1.89-.864c-.755 0-1.383.289-1.9.863-.51.574-.769 1.402-.769 2.48m-2.953-.157q.001-1.435.711-2.777a4.86 4.86 0 0 1 2.004-2.05q1.294-.709 2.895-.708 2.474 0 4.05 1.606 1.58 1.606 1.579 4.054c0 1.649-.532 3.012-1.594 4.098q-1.596 1.624-4.012 1.625-1.499 0-2.855-.68a4.6 4.6 0 0 1-2.067-1.98q-.709-1.307-.71-3.188M210.184 199.004H207.3v-5.559q-.001-1.764-.184-2.28a1.6 1.6 0 0 0-.601-.806q-.416-.288-1-.289c-.496 0-.946.14-1.34.41a2.08 2.08 0 0 0-.817 1.09q-.22.676-.218 2.5v4.934h-2.883v-10.89h2.676v1.6q1.422-1.849 3.59-1.847.949-.001 1.742.344.79.34 1.195.875c.27.355.457.762.562 1.21q.16.68.16 1.938z"/>
</svg>
