<svg xmlns="http://www.w3.org/2000/svg" width="1360" height="214pt" viewBox="0 0 1020 214">
  <path fill="#fff" d="M7.047 206.895h294.945V6.609H7.047z"/>
  <path fill="#264ca4" d="M12.719 201.172H296.32V12.102H12.72z"/>
  <path fill="#f5f014" d="m148.477 53.297 5.984-4.367 5.984 4.367-2.277-7.063 6.078-4.367h-7.492l-2.293-7.148-2.293 7.156-7.488-.008 6.074 4.367zM117.508 61.617l5.984-4.367 5.98 4.367-2.273-7.062 6.074-4.367h-7.492l-2.293-7.157-2.293 7.164-7.488-.008 6.074 4.368zM100.832 65.742l-2.293 7.164-7.488-.008 6.074 4.368-2.277 7.062 5.984-4.367 5.984 4.367-2.277-7.062 6.074-4.368h-7.488zM92.52 110.89l5.98 4.368-2.273-7.063 6.074-4.367h-7.489l-2.292-7.156-2.293 7.172-7.493-.016 6.079 4.367-2.278 7.063zM103.125 134.852l-2.293-7.157-2.293 7.164-7.488-.007 6.074 4.367-2.277 7.062 5.984-4.375 5.984 4.375-2.277-7.062 6.074-4.367zM125.828 157.555l-2.293-7.149-2.289 7.156-7.492-.007 6.074 4.367-2.273 7.062 5.984-4.367 5.98 4.367-2.273-7.062 6.074-4.367zM156.758 165.781l-2.293-7.156-2.29 7.164-7.491-.008 6.074 4.367-2.274 7.063 5.985-4.367 5.98 4.367-2.277-7.063 6.078-4.367zM187.688 157.555l-2.29-7.149-2.296 7.156-7.485-.007 6.07 4.367-2.273 7.062 5.984-4.367 5.985 4.367-2.281-7.062 6.078-4.367zM210.398 134.852l-2.296-7.157-2.297 7.164-7.485-.007 6.078 4.367-2.28 7.062 5.984-4.375 5.984 4.375-2.281-7.062 6.078-4.367zM226.11 103.742h-7.493l-2.297-7.156-2.289 7.164-7.492-.008 6.078 4.367-2.273 7.063 5.976-4.375 5.985 4.375-2.274-7.063zM202.117 84.234l5.985-4.367 5.984 4.367-2.281-7.062 6.078-4.36h-7.485l-2.296-7.156-2.297 7.164-7.485-.007 6.078 4.359zM185.484 43.04l-2.289 7.163-7.492-.016 6.07 4.376-2.273 7.062 5.992-4.375 5.977 4.375-2.274-7.062 6.078-4.376h-7.5z"/>
  <path fill="#264ca4" d="M337.3 83.938V37.41h9.395v20.66l18.98-20.66h12.634l-17.524 18.121 18.477 28.407h-12.157l-12.793-21.836-7.617 7.777v14.058zM391.129 67.086c0 3.344.797 5.902 2.383 7.68q2.38 2.667 5.87 2.668c2.329 0 4.278-.891 5.856-2.668q2.363-2.667 2.364-7.746-.002-4.945-2.364-7.618c-1.578-1.773-3.527-2.664-5.855-2.664q-3.492.001-5.871 2.664c-1.586 1.782-2.383 4.34-2.383 7.684m-9.14-.477q0-4.447 2.19-8.601 2.192-4.161 6.204-6.348 4.019-2.19 8.969-2.191 7.647 0 12.535 4.968c3.258 3.31 4.886 7.497 4.886 12.551q0 7.653-4.933 12.68-4.937 5.032-12.426 5.031-4.634 0-8.84-2.094-4.204-2.097-6.394-6.14-2.192-4.05-2.192-9.856M445.117 83.938V50.23h8.918v33.708Zm0-38.278v-8.25h8.918v8.25Zm-25.043 4.57h4.953v-2.539c0-2.836.301-4.949.903-6.347q.907-2.093 3.332-3.41 2.43-1.32 6.144-1.32 3.809 0 7.457 1.144l-1.207 6.222a17.5 17.5 0 0 0-4.094-.507q-1.933 0-2.777.902-.838.906-.84 3.477v2.378h6.664v7.016h-6.664v26.691h-8.918v-26.69h-4.953zM494.117 83.938H485.2V66.733c0-3.636-.187-5.992-.57-7.058q-.57-1.607-1.856-2.492c-.859-.594-1.886-.891-3.093-.891q-2.322.002-4.157 1.27-1.843 1.27-2.527 3.367-.68 2.092-.68 7.742v15.266h-8.918V50.23h8.282v4.954q4.411-5.714 11.11-5.715 2.951 0 5.394 1.062 2.444 1.065 3.699 2.715a9.9 9.9 0 0 1 1.746 3.746c.324 1.399.488 3.395.488 5.996zM521.766 67.75q-1.716.573-5.43 1.363-3.711.797-4.856 1.559-1.746 1.236-1.746 3.14-.001 1.874 1.399 3.239 1.393 1.364 3.555 1.363 2.409.001 4.601-1.586 1.616-1.208 2.125-2.95.351-1.147.352-4.35Zm-11.938-7.234-8.09-1.461c.91-3.258 2.477-5.668 4.696-7.239q3.333-2.345 9.902-2.347 5.969 0 8.887 1.414c1.949.941 3.316 2.137 4.113 3.586q1.188 2.174 1.187 7.98l-.093 10.41c0 2.965.14 5.149.43 6.555q.426 2.11 1.6 4.523h-8.823q-.352-.886-.856-2.632a16 16 0 0 0-.316-1.047q-2.288 2.22-4.89 3.332-2.603 1.109-5.555 1.11-5.205 0-8.204-2.825c-2-1.883-3-4.266-3-7.14 0-1.907.457-3.602 1.368-5.094q1.36-2.24 3.824-3.43 2.457-1.188 7.094-2.078 6.25-1.172 8.664-2.192v-.886q-.001-2.574-1.274-3.664c-.844-.735-2.441-1.098-4.789-1.098q-2.379 0-3.715.937-1.328.937-2.16 3.286M569.977 83.938h-8.918V66.733c0-3.636-.192-5.992-.575-7.058q-.57-1.607-1.855-2.492-1.284-.891-3.094-.891-2.319.002-4.156 1.27-1.844 1.27-2.524 3.367-.684 2.092-.683 7.742v15.266h-8.918V50.23h8.281v4.954q4.413-5.714 11.11-5.715 2.951 0 5.394 1.062 2.444 1.065 3.7 2.715a9.9 9.9 0 0 1 1.745 3.746c.328 1.399.493 3.395.493 5.996zM575.434 83.938v-6.954l12.632-14.504c2.075-2.367 3.606-4.05 4.602-5.042a88 88 0 0 1-4.094.124l-11.902.067V50.23h27.867v6.317l-12.887 14.851-4.539 4.922c2.477-.148 4.008-.222 4.602-.222h13.808v7.84zM611.52 83.938V50.23h8.918v33.708Zm0-38.278v-8.25h8.918v8.25zM649.605 64.195q-.092-3.872-1.996-5.886-1.906-2.016-4.636-2.016-2.92 0-4.825 2.129t-1.87 5.773Zm-.507 9.016 8.886 1.488q-1.711 4.892-5.41 7.446t-9.25 2.554q-8.796.001-13.015-5.746-3.331-4.599-3.332-11.613 0-8.379 4.382-13.125 4.377-4.746 11.075-4.746 7.523 0 11.87 4.968 4.35 4.965 4.157 15.22h-22.344q.099 3.967 2.16 6.171 2.063 2.208 5.141 2.207 2.095-.001 3.523-1.144 1.43-1.143 2.157-3.68M674.266 83.938h-8.918V50.23h8.285v4.793q2.126-3.393 3.824-4.472c1.133-.723 2.414-1.082 3.856-1.082q3.046 0 5.87 1.683l-2.761 7.778c-1.5-.977-2.899-1.461-4.188-1.461q-1.875 0-3.175 1.031c-.868.688-1.547 1.93-2.047 3.73q-.745 2.696-.746 11.297zM706.48 50.23v7.11h-6.093v13.586q0 4.124.176 4.808.176.681.792 1.125.62.446 1.508.446 1.236.001 3.586-.86l.762 6.922q-3.11 1.331-7.047 1.332-2.408 0-4.348-.808-1.935-.81-2.84-2.094-.902-1.29-1.253-3.477-.283-1.557-.285-6.285V57.34h-4.094v-7.11h4.093v-6.695l8.95-5.207V50.23zM739.996 83.938 726.414 50.23h9.363l6.344 17.204 1.844 5.746c.484-1.461.793-2.422.918-2.89q.444-1.426.953-2.856l6.41-17.204h9.176l-13.395 33.708zM773.957 67.086q0 5.014 2.379 7.68c1.59 1.777 3.543 2.668 5.871 2.668q3.493-.001 5.856-2.668 2.367-2.667 2.367-7.746 0-4.945-2.367-7.618c-1.575-1.773-3.528-2.664-5.856-2.664s-4.281.89-5.871 2.664c-1.586 1.782-2.379 4.34-2.379 7.684m-9.14-.477q0-4.447 2.19-8.601 2.188-4.161 6.204-6.348 4.014-2.19 8.965-2.191c5.101 0 9.277 1.656 12.539 4.968 3.258 3.31 4.887 7.497 4.887 12.551 0 5.102-1.649 9.328-4.938 12.68q-4.934 5.032-12.422 5.031-4.637 0-8.84-2.094-4.207-2.097-6.394-6.14-2.192-4.05-2.192-9.856M837.242 83.938h-8.918V66.733c0-3.636-.191-5.992-.57-7.058q-.573-1.607-1.856-2.492-1.287-.891-3.097-.891-2.316.002-4.156 1.27-1.842 1.27-2.524 3.367-.684 2.092-.683 7.742v15.266h-8.918V50.23h8.285v4.954c2.937-3.809 6.644-5.715 11.105-5.715q2.955 0 5.399 1.062 2.442 1.065 3.695 2.715a9.9 9.9 0 0 1 1.746 3.746c.328 1.399.492 3.395.492 5.996zM871.457 66.355q-.001 5.397 1.492 7.805 2.158 3.492 6.031 3.492 3.077.002 5.235-2.617c1.441-1.746 2.156-4.351 2.156-7.824q.001-5.807-2.09-8.363-2.097-2.555-5.367-2.555c-2.113 0-3.887.844-5.316 2.523q-2.14 2.525-2.141 7.54m23.805 17.582h-8.285v-4.953c-1.375 1.926-3 3.364-4.872 4.301-1.87.945-3.761 1.414-5.664 1.414q-5.811.001-9.953-4.68-4.139-4.681-4.14-13.062 0-8.57 4.03-13.027 4.031-4.46 10.188-4.461 5.648 0 9.778 4.699V37.41h8.918zM924.078 64.195c-.062-2.582-.726-4.543-2-5.886-1.265-1.344-2.812-2.016-4.633-2.016q-2.918 0-4.824 2.129t-1.871 5.773Zm-.508 9.016 8.887 1.488q-1.711 4.892-5.41 7.446t-9.25 2.554q-8.793.001-13.016-5.746c-2.218-3.066-3.332-6.937-3.332-11.613q0-8.379 4.38-13.125t11.077-4.746q7.524 0 11.871 4.968 4.349 4.965 4.157 15.22H910.59c.066 2.644.781 4.702 2.156 6.171q2.068 2.208 5.145 2.207 2.092-.001 3.523-1.144 1.43-1.143 2.156-3.68M948.738 83.938h-8.918V50.23h8.285v4.793q2.126-3.393 3.825-4.472 1.7-1.083 3.855-1.082 3.047 0 5.871 1.683l-2.761 7.778c-1.5-.977-2.899-1.461-4.188-1.461q-1.875 0-3.176 1.031-1.299 1.031-2.047 3.73-.745 2.696-.746 11.297zM337.176 161.938V115.41h34.5v7.871H346.57v10.313h23.36v7.84h-23.36v12.664h25.993v7.84zM402.652 161.938v-5.047q-1.845 2.695-4.84 4.254a13.6 13.6 0 0 1-6.332 1.554q-3.397.001-6.093-1.492-2.7-1.489-3.907-4.191-1.206-2.695-1.207-7.457V128.23h8.922v15.489q0 7.112.493 8.71.486 1.608 1.792 2.54c.868.625 1.965.937 3.301.937q2.285 0 4.094-1.254c1.203-.836 2.031-1.87 2.473-3.109q.668-1.858.668-9.094V128.23h8.918v33.708zM428.707 161.938h-8.918V128.23h8.285v4.793c1.414-2.265 2.692-3.753 3.824-4.476 1.13-.715 2.414-1.078 3.856-1.078q3.047 0 5.871 1.683l-2.762 7.774q-2.255-1.455-4.187-1.457-1.875 0-3.176 1.031-1.301 1.032-2.047 3.727c-.5 1.8-.746 5.566-.746 11.3zM452.543 145.086q0 5.012 2.379 7.68 2.384 2.665 5.875 2.664 3.487 0 5.855-2.664 2.363-2.667 2.364-7.746-.002-4.951-2.364-7.618c-1.578-1.773-3.53-2.664-5.855-2.664q-3.491.001-5.875 2.664-2.379 2.667-2.379 7.684m-9.14-.477q0-4.447 2.19-8.601 2.189-4.161 6.204-6.348 4.014-2.19 8.965-2.191c5.101 0 9.277 1.656 12.539 4.969 3.258 3.308 4.887 7.496 4.887 12.55q0 7.653-4.934 12.68-4.939 5.032-12.426 5.031-4.637 0-8.84-2.094-4.207-2.097-6.394-6.14-2.192-4.05-2.192-9.856M493.738 144.512q-.001 5.683 2.254 8.394 2.251 2.714 5.492 2.715 3.111-.001 5.172-2.492 2.063-2.49 2.063-8.172.001-5.3-2.125-7.871-2.128-2.571-5.27-2.57-3.27 0-5.426 2.523c-1.441 1.68-2.16 4.176-2.16 7.473m-8.824-16.282h8.316v4.954c1.082-1.696 2.54-3.07 4.383-4.13 1.836-1.054 3.88-1.585 6.125-1.585q5.87.001 9.965 4.601 4.095 4.604 4.094 12.825 0 8.443-4.125 13.12c-2.75 3.122-6.086 4.684-10 4.684q-2.792 0-5.063-1.11c-1.511-.741-3.105-2.01-4.773-3.812v16.98h-8.922zM541.348 122.266v-7.653h7.68v7.653Zm2.125 23.484c-1.145.383-2.95.836-5.426 1.363q-3.717.798-4.856 1.559-1.746 1.236-1.746 3.14 0 1.875 1.395 3.239 1.399 1.364 3.555 1.363c1.609 0 3.14-.527 4.601-1.586q1.619-1.208 2.129-2.95.346-1.147.348-4.35Zm-15.774-23.484v-7.653h7.649v7.653Zm3.84 16.25-8.094-1.461q1.365-4.888 4.7-7.239 3.331-2.345 9.902-2.347 5.963 0 8.887 1.414 2.919 1.412 4.109 3.586t1.191 7.984l-.097 10.406q0 4.447.43 6.555c.285 1.406.82 2.918 1.601 4.524h-8.82q-.351-.891-.86-2.637a18 18 0 0 0-.316-1.047q-2.285 2.225-4.887 3.336-2.601 1.109-5.555 1.11-5.208 0-8.203-2.825c-2-1.883-3-4.266-3-7.14q-.001-2.861 1.364-5.094 1.364-2.24 3.824-3.43 2.46-1.188 7.094-2.078 6.254-1.172 8.664-2.192v-.886q.001-2.573-1.27-3.668-1.266-1.095-4.793-1.094-2.38 0-3.71.937-1.336.937-2.16 3.286M561.027 161.938V128.23h8.918v33.708Zm0-38.278v-8.25h8.918v8.25zM575.941 152.32l8.95-1.363q.573 2.6 2.32 3.95c1.16.898 2.793 1.347 4.887 1.347q3.457.001 5.203-1.27 1.177-.884 1.176-2.379.001-1.014-.637-1.683-.665-.633-2.98-1.172-10.793-2.379-13.68-4.348-4.001-2.729-4-7.586-.001-4.381 3.46-7.363 3.457-2.983 10.727-2.984 6.92-.001 10.281 2.254c2.243 1.504 3.79 3.722 4.637 6.664l-8.414 1.554q-.54-1.961-2.047-3.015-1.506-1.046-4.297-1.047c-2.351 0-4.035.332-5.047.984-.68.469-1.015 1.07-1.015 1.809q-.002.954.887 1.621 1.207.886 8.332 2.504 7.125 1.624 9.949 3.969c1.86 1.586 2.793 3.8 2.793 6.632q0 4.635-3.871 7.97-3.875 3.332-11.457 3.331-6.89 0-10.903-2.793c-2.675-1.863-4.43-4.39-5.254-7.586M644.621 138.195l-8.789 1.59c-.297-1.758-.969-3.078-2.016-3.969q-1.57-1.334-4.078-1.332-3.334 0-5.316 2.301c-1.32 1.535-1.985 4.098-1.985 7.695q0 6 2.016 8.477 2.016 2.473 5.414 2.473 2.538 0 4.156-1.442 1.618-1.447 2.286-4.968l8.761 1.492c-.91 4.02-2.66 7.054-5.238 9.11q-3.874 3.076-10.379 3.077-7.394.002-11.793-4.668-4.394-4.665-4.394-12.914 0-8.348 4.414-13c2.937-3.097 6.918-4.648 11.933-4.648q6.154 0 9.79 2.652 3.634 2.649 5.218 8.074M660.27 115.41v17.106q4.317-5.046 10.316-5.047 3.075.001 5.555 1.144 2.472 1.143 3.726 2.918a10.6 10.6 0 0 1 1.715 3.938q.462 2.155.461 6.695v19.774h-8.918v-17.805c0-3.535-.172-5.778-.508-6.73a4.45 4.45 0 0 0-1.793-2.27q-1.29-.84-3.222-.84-2.221 0-3.97 1.078c-1.16.719-2.015 1.805-2.554 3.254q-.808 2.176-.808 6.426v16.887h-8.918V115.41zM711.113 142.195q-.092-3.872-1.996-5.886-1.905-2.016-4.637-2.016-2.918.001-4.824 2.125c-1.27 1.422-1.894 3.344-1.87 5.777Zm-.508 9.016 8.887 1.492q-1.711 4.887-5.41 7.442-3.698 2.554-9.254 2.554-8.788 0-13.012-5.742c-2.218-3.07-3.332-6.941-3.332-11.617q0-8.379 4.383-13.125 4.378-4.746 11.074-4.746c5.016 0 8.97 1.656 11.871 4.969q4.35 4.963 4.157 15.218h-22.344q.098 3.968 2.16 6.172 2.06 2.205 5.14 2.207c1.4 0 2.571-.383 3.524-1.144.953-.762 1.668-1.989 2.156-3.68M757.898 161.938h-8.918v-17.204q.001-5.456-.574-7.062-.57-1.602-1.855-2.492-1.286-.886-3.094-.887-2.319-.001-4.156 1.27-1.844 1.27-2.524 3.363-.684 2.097-.683 7.746v15.266h-8.918V128.23h8.281v4.954q4.412-5.714 11.11-5.715 2.951 0 5.394 1.062 2.444 1.065 3.7 2.715a9.8 9.8 0 0 1 1.745 3.746q.492 2.094.492 5.996zM785.004 115.41h9.394v25.2q-.002 6 .348 7.773c.402 1.906 1.36 3.433 2.871 4.59q2.269 1.729 6.207 1.73 3.995-.001 6.028-1.637t2.445-4.015c.273-1.586.414-4.219.414-7.903V115.41h9.394v24.438q0 8.378-.761 11.836-.763 3.462-2.809 5.84-2.05 2.386-5.476 3.792-3.43 1.413-8.95 1.414-6.666.002-10.109-1.539-3.445-1.54-5.441-4c-1.336-1.64-2.215-3.355-2.637-5.156-.613-2.668-.918-6.601-.918-11.808zM862.602 161.938h-8.918v-17.204q-.002-5.456-.57-7.062-.574-1.602-1.856-2.492c-.86-.59-1.89-.887-3.098-.887q-2.316-.001-4.156 1.27-1.842 1.27-2.524 3.363-.681 2.097-.683 7.746v15.266h-8.918V128.23h8.285v4.954q4.412-5.714 11.11-5.715 2.945 0 5.394 1.062 2.443 1.065 3.695 2.715a9.8 9.8 0 0 1 1.746 3.746q.493 2.094.493 5.996zM871.648 161.938V128.23h8.918v33.708Zm0-38.278v-8.25h8.918v8.25zM896.785 145.086q0 5.012 2.38 7.68c1.589 1.777 3.542 2.664 5.87 2.664q3.493 0 5.856-2.664 2.367-2.667 2.367-7.746 0-4.951-2.367-7.618c-1.575-1.773-3.528-2.664-5.856-2.664s-4.281.89-5.87 2.664q-2.38 2.667-2.38 7.684m-9.14-.477c0-2.964.726-5.832 2.19-8.601q2.189-4.161 6.204-6.348 4.014-2.19 8.965-2.191 7.65 0 12.535 4.969c3.262 3.308 4.89 7.496 4.89 12.55q.001 7.653-4.937 12.68-4.934 5.032-12.422 5.031-4.637 0-8.84-2.094-4.207-2.097-6.394-6.14c-1.465-2.7-2.191-5.985-2.191-9.856M960.07 161.938h-8.918v-17.204q0-5.456-.574-7.062-.57-1.602-1.855-2.492-1.284-.886-3.094-.887-2.316-.001-4.156 1.27-1.844 1.27-2.524 3.363-.684 2.097-.683 7.746v15.266h-8.918V128.23h8.285v4.954q4.407-5.714 11.105-5.715c1.969 0 3.766.355 5.399 1.062q2.443 1.065 3.695 2.715a9.8 9.8 0 0 1 1.746 3.746q.492 2.094.492 5.996z"/>
</svg>
