<svg xmlns="http://www.w3.org/2000/svg" width="202pt" height="157pt" viewBox="0 0 202 157">
  <defs>
    <clipPath id="a">
      <path d="M16 .3h150V76H16Zm0 0"/>
    </clipPath>
    <clipPath id="b">
      <path d="M16 .3h153V78H16Zm0 0"/>
    </clipPath>
    <clipPath id="c">
      <path d="M19 16h166.602v85H19Zm0 0"/>
    </clipPath>
    <clipPath id="d">
      <path d="M16 11h169.602v95H16Zm0 0"/>
    </clipPath>
    <clipPath id="e">
      <path d="M192 146h9.398v11H192Zm0 0"/>
    </clipPath>
  </defs>
  <path d="M172.465 53.254c-7.324 19.66-28.086 29.98-46.66 34.766-13.743 3.796-29.524 4.707-44.094 3.113l3.625-1.672c17.668 1.594 35.863-1.063 51.418-7.059 13.21-4.933 27.633-14.195 33.144-28.242z"/>
  <path fill="none" stroke="#000" stroke-width=".4162" d="M172.465 53.254c-7.324 19.66-28.086 29.98-46.66 34.766-13.743 3.796-29.524 4.707-44.094 3.113l3.625-1.672c17.668 1.594 35.863-1.063 51.418-7.059 13.21-4.933 27.633-14.195 33.144-28.242Zm0 0"/>
  <path fill="#fff200" d="M175.484 51.96c.227-1.288.075-2.808.98-3.948 2.114-1.211 5.813-1.594 5.891-4.934-.078-1.742-.605-3.492-2.113-4.324-1.512-.383-3.097.074-4.457.531-4.594.3-.851-4.605-3.379-6.363-9.152 2.664-23.203 7.262-44.515 15.21-18.653 6.954-59.746 26.938-83.93 41.86 0 1.063.227 2.051 1.055 2.735 1.586 1.593 3.777.152 5.515 0 .676 0 1.13.3 1.434.91 1.055 3.035-2.719 3.261-4.23 4.781-1.813 1.441-4.227 2.504-4.833 4.934-.375 1.593 0 3.187 1.059 4.406 1.207 1.289 3.094 1.59 4.68 1.062l7.777-4.328 25.293-13.36 8.832-4.405 19.48-9.032A554 554 0 0 1 138.488 65.7l17.14-6.601c4.755-1.672 9.438-3.418 14.27-4.938 0 0 4.832-1.363 5.586-2.2"/>
  <path fill="none" stroke="#fff200" stroke-width=".4162" d="M175.484 51.96c.227-1.288.075-2.808.98-3.948 2.114-1.211 5.813-1.594 5.891-4.934-.078-1.742-.605-3.492-2.113-4.324-1.512-.383-3.097.074-4.457.531-4.594.3-.851-4.605-3.379-6.363-9.152 2.664-23.203 7.262-44.515 15.21-18.653 6.954-59.746 26.938-83.93 41.86 0 1.063.227 2.051 1.055 2.735 1.586 1.593 3.777.152 5.515 0 .676 0 1.13.3 1.434.91 1.055 3.035-2.719 3.261-4.23 4.781-1.813 1.441-4.227 2.504-4.833 4.934-.375 1.593 0 3.187 1.059 4.406 1.207 1.289 3.094 1.59 4.68 1.062l7.777-4.328 25.293-13.36 8.832-4.405 19.48-9.032A554 554 0 0 1 138.488 65.7l17.14-6.601c4.755-1.672 9.438-3.418 14.27-4.938 0 0 4.832-1.363 5.586-2.2Zm0 0"/>
  <g clip-path="url(#a)">
    <path d="m151.406 18.832 7.485-2.234c.097-.078.195-.16.285-.239 2.113-.91 4.984-.836 6.191-3.265.754-1.29.606-3.188-.3-4.403-2.57-3.414-6.27-.457-9.212.153-1.511.304-3.625 1.367-4.832-.227-1.359-1.976.149-4.48-.984-6.531C149.06-.04 146.492.57 144.68.87c-8.683 2.582-17.062 6.152-25.519 9.34-18.347.074-36.242 4.176-51.265 13.434.753.23 1.585.378 2.34.683a86 86 0 0 1 16.46-7.21c8.305-2.583 17.29-4.403 26.352-4.63-.684.453-1.512.832-2.344.91-5.89 2.582-11.703 4.86-17.668 7.516l-20.383 9.184c-14.27 6.832-28.086 14.347-41.98 22.015h-.379C29.613 34.957 46.68 22.13 60.57 16.512c11.778-5.086 24.692-7.516 38.13-8.278-.454-.757-1.06-1.136-1.74-1.746l-3.847.23c-7.324.532-14.496 1.973-21.367 3.72-5.21 1.746-10.496 3.417-15.402 5.843-13.817 6.532-29.371 19.965-28.086 37.047l-5.965 3.567c-1.887 1.44-4.531 2.05-5.738 4.402-.453 1.062-.38 2.43.148 3.418.758 1.367 2.192 2.2 3.777 2.125 2.72-.38 5.286-1.594 7.778-2.809.754-.23 1.66-.531 2.488-.23.68.304.984 1.219.758 1.898-.531 2.887-4.684 3.04-4.078 6.453.074 1.368 1.058 2.657 2.187 3.266 0 0 3.961-1.188 40.38-21.293 36.421-20.102 81.413-35.293 81.413-35.293"/>
  </g>
  <g clip-path="url(#b)">
    <path fill="none" stroke="#000" stroke-width=".4162" d="m151.406 18.832 7.485-2.234c.097-.078.195-.16.285-.239 2.113-.91 4.984-.836 6.191-3.265.754-1.29.606-3.188-.3-4.403-2.57-3.414-6.27-.457-9.212.153-1.511.304-3.625 1.367-4.832-.227-1.359-1.976.149-4.48-.984-6.531C149.06-.04 146.492.57 144.68.87c-8.683 2.582-17.062 6.152-25.519 9.34-18.347.074-36.242 4.176-51.265 13.434.753.23 1.585.378 2.34.683a86 86 0 0 1 16.46-7.21c8.305-2.583 17.29-4.403 26.352-4.63-.684.453-1.512.832-2.344.91-5.89 2.582-11.703 4.86-17.668 7.516l-20.383 9.184c-14.27 6.832-28.086 14.347-41.98 22.015h-.379C29.613 34.957 46.68 22.13 60.57 16.512c11.778-5.086 24.692-7.516 38.13-8.278-.454-.757-1.06-1.136-1.74-1.746l-3.847.23c-7.324.532-14.496 1.973-21.367 3.72-5.21 1.746-10.496 3.417-15.402 5.843-13.817 6.532-29.371 19.965-28.086 37.047l-5.965 3.567c-1.887 1.44-4.531 2.05-5.738 4.402-.453 1.062-.38 2.43.148 3.418.758 1.367 2.192 2.2 3.777 2.125 2.72-.38 5.286-1.594 7.778-2.809.754-.23 1.66-.531 2.488-.23.68.304.984 1.219.758 1.898-.531 2.887-4.684 3.04-4.078 6.453.074 1.368 1.058 2.657 2.187 3.266 0 0 3.961-1.188 40.38-21.293 36.421-20.102 81.413-35.293 81.413-35.293Zm0 0"/>
  </g>
  <g clip-path="url(#c)">
    <path fill="#ed1c24" d="M180.242 30.328c1.813-.531 3.848-1.672 4.606-3.644.601-1.52.3-3.34-.907-4.633-1.132-1.063-3.02-.684-4.379-.227-1.058-.152-1.964.836-2.87.305-.376-.61.152-1.367.605-1.977.601-1.062.074-2.351-.606-3.261-.68-.457-1.586-.532-2.34-.457-3.093.457-6.19 1.593-8.984 2.43-2.191.456-4.68 2.429-6.797.683a1.65 1.65 0 0 1-.601-1.52c0-.625.46-1.043.922-1.43l-7.485 2.235s-44.992 15.191-81.414 35.293C33.574 74.23 29.613 75.418 29.613 75.418c-1.207.836-2.414 1.973-3.093 3.34-.38 1.367.152 2.734 1.285 3.644 2.039 1.215 3.847-.836 5.738-1.293.676.23 1.129.836 1.434 1.52.3.531.152 1.52-.227 1.898-4.078 2.73-8.457 5.086-12.61 7.668-.98.532-1.734 1.594-2.113 2.578-.68 1.977.075 3.875 1.434 5.086 1.207 1.063 3.02 1.215 4.531.762 6.113-3.266 11.93-7.289 17.969-10.629 24.184-14.922 65.277-34.906 83.93-41.86 21.312-7.948 35.363-12.546 44.515-15.21l-.015-.016c2.562-.984 5.207-1.668 7.851-2.578"/>
  </g>
  <g clip-path="url(#d)">
    <path fill="none" stroke="#ed1c24" stroke-width=".8324" d="M180.242 30.328c1.813-.531 3.848-1.672 4.606-3.644.601-1.52.3-3.34-.907-4.633-1.132-1.063-3.02-.684-4.379-.227-1.058-.152-1.964.836-2.87.305-.376-.61.152-1.367.605-1.977.601-1.062.074-2.351-.606-3.261-.68-.457-1.586-.532-2.34-.457-3.093.457-6.19 1.593-8.984 2.43-2.191.456-4.68 2.429-6.797.683a1.65 1.65 0 0 1-.601-1.52c0-.625.46-1.043.922-1.43l-7.485 2.235s-44.992 15.191-81.414 35.293C33.574 74.23 29.613 75.418 29.613 75.418c-1.207.836-2.414 1.973-3.093 3.34-.38 1.367.152 2.734 1.285 3.644 2.039 1.215 3.847-.836 5.738-1.293.676.23 1.129.836 1.434 1.52.3.531.152 1.52-.227 1.898-4.078 2.73-8.457 5.086-12.61 7.668-.98.532-1.734 1.594-2.113 2.578-.68 1.977.075 3.875 1.434 5.086 1.207 1.063 3.02 1.215 4.531.762 6.113-3.266 11.93-7.289 17.969-10.629 24.184-14.922 65.277-34.906 83.93-41.86 21.312-7.948 35.363-12.546 44.515-15.21l-.015-.016c2.562-.984 5.207-1.668 7.851-2.578Zm0 0"/>
  </g>
  <path fill="#fff" d="M101.453 28.465H78.871v29.418c1.93 14.09 11.762 20.308 22.16 20.398v.004c.04 0 .074-.004.114-.004q.056.002.113.004v-.004c10.402-.09 20.23-6.308 22.156-20.398V28.465z"/>
  <path fill="none" stroke="#fff" stroke-width=".31220000000000003" d="M101.453 28.465H78.871v29.418c1.93 14.09 11.762 20.308 22.16 20.398v.004c.04 0 .074-.004.114-.004.039 0 .074.004.113.004v-.004c10.402-.09 20.23-6.308 22.156-20.398V28.465Zm0 0"/>
  <path fill="none" stroke="#000" stroke-width=".31220000000000003" d="M93.07 51.676c5.73-9.817 7.852-21.59 8.043-22.723H79.31v28.84c.379 2.77 1.074 5.223 2.02 7.383-.075-.168-.153-.332-.224-.508.875-.45 6.5-3.629 11.965-12.992Zm0 0"/>
  <path fill="#ed1c24" d="M121.227 64.559q-.148.356-.301.707c.96-2.184 1.672-4.668 2.054-7.473v-28.84h-21.832c.793 4.082 4.336 16.52 8.043 22.723 5.313 8.89 10.782 12.207 12.036 12.883"/>
  <path fill="none" stroke="#ed1c24" stroke-width=".2081" d="M121.227 64.559q-.148.356-.301.707c.96-2.184 1.672-4.668 2.054-7.473v-28.84h-21.832c.793 4.082 4.336 16.52 8.043 22.723 5.313 8.89 10.782 12.207 12.036 12.883Zm0 0"/>
  <path fill="none" stroke="#000" stroke-width=".31220000000000003" d="M101.45 28.953H79.308v28.84c1.89 13.816 11.527 19.914 21.726 20v.004q.051-.002.11-.004.057.002.109.004v-.004c10.2-.086 19.836-6.184 21.726-20v-28.84Zm0 0"/>
  <path fill="#ed1c24" d="M99.11 38.434h-7.34v-9.48h-5.418v9.48h-7.043v5.308h7.043v16.66h5.418v-16.66h7.34z"/>
  <path fill="none" stroke="#000" stroke-width=".31220000000000003" d="M99.11 38.434h-7.34v-9.48h-5.418v9.48h-7.043v5.308h7.043v16.66h5.418v-16.66h7.34Zm0 0"/>
  <path d="m101.133 28.855-.02.098h.035c-.011-.058-.015-.098-.015-.098M109.191 51.676c-5.257-8.797-7.812-21.547-8.043-22.723h-.035c-.191 1.133-2.312 12.906-8.043 22.723-5.465 9.363-11.09 12.543-11.965 12.992 3.676 8.988 11.618 13.05 19.93 13.125v.004q.051-.002.11-.004c.039 0 .074.004.109.004v-.004c8.348-.074 16.316-4.172 19.973-13.234-1.254-.676-6.723-3.993-12.036-12.883"/>
  <path fill="none" stroke="#000" stroke-width=".31220000000000003" d="M109.191 51.676c-5.257-8.797-7.812-21.547-8.043-22.723h-.035c-.191 1.133-2.312 12.906-8.043 22.723-5.465 9.363-11.09 12.543-11.965 12.992 3.676 8.988 11.618 13.05 19.93 13.125v.004q.051-.002.11-.004.057.002.109.004v-.004c8.348-.074 16.316-4.172 19.973-13.234-1.254-.676-6.723-3.993-12.036-12.883Zm0 0"/>
  <path fill="#fff200" d="m103.707 49.133-.043.582c.336.289.75.539 1.207.332.043.582-.625.914-.914 1.289.457.25 1.082.46 1.707.293-.043.293-.21.664-.46.914-.247.25-.622.336-.958.375.418.418 1.043.582 1.625.418-.043.414-.375.789-.75.957l-.5.125c0 .332.211.621.461.871l.582.336c-.086.207-.25.29-.46.375-.247 0-.458-.21-.665-.25-.043.414.168.79.418 1.082.207.25.496.332.746.5-.289.582-.957.621-1.496.582.082.707.29 1.414.957 1.871-.5.25-1.293.375-1.75-.039-.289.164-.207.621-.332.914-.207.418-.496 1-1.039 1.125.082-.707 0-1.5-.332-2.125-.332 0-.293.5-.5.707-.457.586-1.082.875-1.75 1 .25-.625.332-1.457.168-2.207-.293.461-.625 1.043-1.125 1.25s-1.082.332-1.664.25c.664-.543 1.039-1.332.914-2.164-.746.457-1.332 1.375-2.246 1.375.375-.71.75-1.582.707-2.5-.5.418-.914 1.332-1.707 1 .543-.625.25-1.5-.04-2.125-.21-.914-1.624-.539-1.374-1.578.168-.457.707-.043.957-.293-.043-.25-.164-.707.207-.75.375-.04.46.375.71.586.165-.086.247-.375.415-.461.914.086.293 1.125.539 1.707.293.832 1.168 1.375 2.043 1.414.75.086 1.414-.332 1.746-1 .207-.496.25-1.121.25-1.703-.293-.125-.707.082-1-.043-.29-.04-.621-.164-.582-.5V53.5c.582.086 1.457.21 1.75-.496.164-.336.043-.75-.082-1.043-.543-.457-1.086.125-1.582.168-.336-.293-.461-.875-.336-1.293.707-.332 1.539-.664 1.832-1.496.707-.418 1.664-.668 2.539-.375.25-.543 1.04-.293 1.207.168"/>
  <path fill="none" stroke="#231f20" stroke-width=".2081" d="m103.707 49.133-.043.582c.336.289.75.539 1.207.332.043.582-.625.914-.914 1.289.457.25 1.082.46 1.707.293-.043.293-.21.664-.46.914-.247.25-.622.336-.958.375a1.67 1.67 0 0 0 1.625.418c-.043.414-.375.789-.75.957l-.5.125c0 .332.211.621.461.871l.582.336c-.086.207-.25.29-.46.375-.247 0-.458-.21-.665-.25-.043.414.168.79.418 1.082.207.25.496.332.746.5-.289.582-.957.621-1.496.582.082.707.29 1.414.957 1.871-.5.25-1.293.375-1.75-.039-.289.164-.207.621-.332.914-.207.418-.496 1-1.039 1.125.082-.707 0-1.5-.332-2.125-.332 0-.293.5-.5.707-.457.586-1.082.875-1.75 1 .25-.625.332-1.457.168-2.207-.293.461-.625 1.043-1.125 1.25s-1.082.332-1.664.25c.664-.543 1.039-1.332.914-2.164-.746.457-1.332 1.375-2.246 1.375.375-.71.75-1.582.707-2.5-.5.418-.914 1.332-1.707 1 .543-.625.25-1.5-.04-2.125-.21-.914-1.624-.539-1.374-1.578.168-.457.707-.043.957-.293-.043-.25-.164-.707.207-.75.375-.04.46.375.71.586.165-.086.247-.375.415-.461.914.086.293 1.125.539 1.707.293.832 1.168 1.375 2.043 1.414.75.086 1.414-.332 1.746-1 .207-.496.25-1.121.25-1.703-.293-.125-.707.082-1-.043-.29-.04-.621-.164-.582-.5V53.5c.582.086 1.457.21 1.75-.496.164-.336.043-.75-.082-1.043-.543-.457-1.086.125-1.582.168-.336-.293-.461-.875-.336-1.293.707-.332 1.539-.664 1.832-1.496.707-.418 1.664-.668 2.539-.375.25-.543 1.04-.293 1.207.168Zm0 0"/>
  <path d="m101.71 50.672-.5-.207c-.167.25-.456.37-.706.25-.418-.25.125-.711-.25-.961v-.082c.539.207 1.164.457 1.457 1"/>
  <path fill="#fff" d="M100.54 50.465c-.075-.055-.005-.211-.005-.211l.121.27s-.047 0-.117-.06"/>
  <path fill="#fff200" d="M107.453 54.086c.207.082.375-.168.582-.25l.668-.582c.125 1.289-.5 2.328-1.332 3.242l.082.043c.664-.25 1.375-.332 1.957-.75-.207 1.332-2.207 2.082-1.707 3.707.664 1.621 1.207 3.867.168 5.535-.293.457-.75.625-1.168.875-.5.914-.207 2.078-.164 3.121.914 0 1.871.082 2.328.957.043.082.086.164.086.29-.418 0-1.043-.04-1.332.335.04.29.414.332.582.582.457.54.664 1.332.5 2.04-.336-.126-.75-.126-.957-.418-.086.042-.25.042-.25.167.207.665.414 1.665-.21 2.207-.04-.542-.333-1-.79-1.292-.25-.125-.625-.207-.832-.04-.582.457-1 1.082-1.293 1.747-.125.168-.371.207-.582.125-.207-.165-.207-.5-.207-.75-.332-.082-.457.585-.832.25-.25-.125-.29-.415-.207-.625.043-.25.496-.125.332-.457-.25-.04-.5-.165-.54-.415 0-.21-.042-.5.208-.582.332.165.707.29 1.121.125.375-.085.707-.46.875-.793.293-1.164-1-1.832-.832-2.914.375-1.332.332-2.87.832-4.16 0-1.043-1.207-.707-1.75-1.168-.789-.457-1.578-.832-2.246-1.496-.664.707-.914 1.707-1.746 2.29a7.3 7.3 0 0 0-.375-1.294c-.293.625-.418 1.375-1.04 1.918a4.6 4.6 0 0 1-1.292.914c.043-.5.082-1.125-.125-1.539-.54.707-.996 1.664-1.871 2.078.039-.414.082-.996-.086-1.414-.082-.039-.164 0-.246-.039-.125.54-.418 1.121-1 1.332a.8.8 0 0 1-.543.04c.375-.583.418-1.54.125-2.165-.164-.207-.457-.289-.664-.164-.293.125-.543.496-.918.375-.125-.168-.29-.375-.125-.586.086-.207.457-.125.336-.457-.25-.125-.668-.293-.625-.668 0-.164.039-.37.25-.457.25-.082.539.211.62-.125-.124-.207-.288-.457-.124-.746.875-.418.96 1.121 1.875 1.04 1.082.331 2.082-.25 3.078-.458.668-.293 1.25-.957 1.293-1.707.789-.082 1.582-.293 2.12-1 .044.582-.038 1.125-.456 1.5v.164c1.082.043 2.082-.457 2.621-1.414.375.582.086 1.375.168 1.957.75-.125 1.332-.789 1.539-1.5 1.04.836 2.332 1.625 3.121 2.79.25.5.207 1.206.125 1.788.207.125.5-.039.668-.207 1.871-2.082 0-4.66-.336-6.824-.164-.918 0-1.875.125-2.75-.207-.5-.746-.914-.582-1.578.543-.957.668-2.082.707-3.29.832.915.5 2.458.293 3.54"/>
  <path fill="none" stroke="#231f20" stroke-width=".2081" d="M107.453 54.086c.207.082.375-.168.582-.25l.668-.582c.125 1.289-.5 2.328-1.332 3.242l.082.043c.664-.25 1.375-.332 1.957-.75-.207 1.332-2.207 2.082-1.707 3.707.664 1.621 1.207 3.867.168 5.535-.293.457-.75.625-1.168.875-.5.914-.207 2.078-.164 3.121.914 0 1.871.082 2.328.957.043.082.086.164.086.29-.418 0-1.043-.04-1.332.335.04.29.414.332.582.582.457.54.664 1.332.5 2.04-.336-.126-.75-.126-.957-.418-.086.042-.25.042-.25.167.207.665.414 1.665-.21 2.207-.04-.542-.333-1-.79-1.292-.25-.125-.625-.207-.832-.04-.582.457-1 1.082-1.293 1.747-.125.168-.371.207-.582.125-.207-.165-.207-.5-.207-.75-.332-.082-.457.585-.832.25-.25-.125-.29-.415-.207-.625.043-.25.496-.125.332-.457-.25-.04-.5-.165-.54-.415 0-.21-.042-.5.208-.582.332.165.707.29 1.121.125.375-.085.707-.46.875-.793.293-1.164-1-1.832-.832-2.914.375-1.332.332-2.87.832-4.16 0-1.043-1.207-.707-1.75-1.168-.789-.457-1.578-.832-2.246-1.496-.664.707-.914 1.707-1.746 2.29a7.3 7.3 0 0 0-.375-1.294c-.293.625-.418 1.375-1.04 1.918a4.6 4.6 0 0 1-1.292.914c.043-.5.082-1.125-.125-1.539-.54.707-.996 1.664-1.871 2.078.039-.414.082-.996-.086-1.414-.082-.039-.164 0-.246-.039-.125.54-.418 1.121-1 1.332a.8.8 0 0 1-.543.04c.375-.583.418-1.54.125-2.165-.164-.207-.457-.289-.664-.164-.293.125-.543.496-.918.375-.125-.168-.29-.375-.125-.586.086-.207.457-.125.336-.457-.25-.125-.668-.293-.625-.668 0-.164.039-.37.25-.457.25-.082.539.211.62-.125-.124-.207-.288-.457-.124-.746.875-.418.96 1.121 1.875 1.04 1.082.331 2.082-.25 3.078-.458.668-.293 1.25-.957 1.293-1.707.789-.082 1.582-.293 2.12-1 .044.582-.038 1.125-.456 1.5v.164c1.082.043 2.082-.457 2.621-1.414.375.582.086 1.375.168 1.957.75-.125 1.332-.789 1.539-1.5 1.04.836 2.332 1.625 3.121 2.79.25.5.207 1.206.125 1.788.207.125.5-.039.668-.207 1.871-2.082 0-4.66-.336-6.824-.164-.918 0-1.875.125-2.75-.207-.5-.746-.914-.582-1.578.543-.957.668-2.082.707-3.29.832.915.5 2.458.293 3.54Zm0 0"/>
  <path fill="#fff200" d="m104.246 65.656-.332 1.121c-1.039.543-2.578.668-2.953 2.04-.125.917.207 1.75 0 2.663-.082-.332-.25-.832-.668-.957 0 1.25.168 2.707-.79 3.582h-.042c0-.5-.164-.918-.414-1.25-.582.543-.668 1.415-1.332 1.872 0-.497 0-.997-.457-1.247-.961-.418-1.336 1.79-2.125.5-.043-.125-.125-.335 0-.5.082-.125.375-.168.207-.375-.164-.082-.414 0-.54-.207-.124-.125-.124-.418-.042-.625.086-.25.582.04.5-.375-.168-.125-.457-.168-.414-.457-.043-.336.289-.5.496-.625.418-.125.543.375.793.582.457.25 1 .332 1.496.207 1.793-1.332-.082-3.87 1.543-5.328 1.082-.957 2.539-.996 3.703-1.703.457.375 1.707.082 1.371 1.082"/>
  <path fill="none" stroke="#231f20" stroke-width=".2081" d="m104.246 65.656-.332 1.121c-1.039.543-2.578.668-2.953 2.04-.125.917.207 1.75 0 2.663-.082-.332-.25-.832-.668-.957 0 1.25.168 2.707-.79 3.582h-.042c0-.5-.164-.918-.414-1.25-.582.543-.668 1.415-1.332 1.872 0-.497 0-.997-.457-1.247-.961-.418-1.336 1.79-2.125.5-.043-.125-.125-.335 0-.5.082-.125.375-.168.207-.375-.164-.082-.414 0-.54-.207-.124-.125-.124-.418-.042-.625.086-.25.582.04.5-.375-.168-.125-.457-.168-.414-.457-.043-.336.289-.5.496-.625.418-.125.543.375.793.582.457.25 1 .332 1.496.207 1.793-1.332-.082-3.87 1.543-5.328 1.082-.957 2.539-.996 3.703-1.703.457.375 1.707.082 1.371 1.082Zm0 0"/>
  <path fill="#ed1c24" d="M98.047 52.543c.543.336 1.207-.164 1.707.21-.707.083-1.707.665-2.371 0-.211-.335-.125-.706-.043-1.081.082.332.332.746.707.871"/>
  <path fill="none" stroke="#ed1c24" stroke-width=".1041" d="M98.047 52.543c.543.336 1.207-.164 1.707.21-.707.083-1.707.665-2.371 0-.211-.335-.125-.706-.043-1.081.082.332.332.746.707.871Zm0 0"/>
  <path fill="#ed1c24" d="m94.344 53.254-.457.082.082-.457a.83.83 0 0 1 .375.375"/>
  <path fill="none" stroke="#ed1c24" stroke-width=".1041" d="m94.344 53.254-.457.082.082-.457a.83.83 0 0 1 .375.375Zm0 0"/>
  <path fill="#ed1c24" d="m95.965 53.5-.457-.121.25-.336c.125.086.164.293.207.457"/>
  <path fill="none" stroke="#ed1c24" stroke-width=".1041" d="m95.965 53.5-.457-.121.25-.336c.125.086.164.293.207.457Zm0 0"/>
  <path fill="#ed1c24" d="M92.719 54.668c-.082-.168-.25-.375-.125-.543l.418.043z"/>
  <path fill="none" stroke="#ed1c24" stroke-width=".1041" d="M92.719 54.668c-.082-.168-.25-.375-.125-.543l.418.043Zm0 0"/>
  <path fill="#ed1c24" stroke="#ed1c24" stroke-width=".1041" d="m90.68 61.992-.168-.332h.46Zm0 0"/>
  <path fill="#ed1c24" d="M89.93 63.242c-.082-.21-.25-.5-.164-.625h.496z"/>
  <path fill="none" stroke="#ed1c24" stroke-width=".1041" d="M89.93 63.242c-.082-.21-.25-.5-.164-.625h.496Zm0 0"/>
  <path fill="#ed1c24" stroke="#ed1c24" stroke-width=".1041" d="m90.016 65.281.207-.418.125.375Zm0 0"/>
  <path fill="#ed1c24" d="M94.844 70.73c-.168.168-.336.293-.336.543-.125-.082-.207-.332-.25-.5a.72.72 0 0 1 .586-.043"/>
  <path fill="none" stroke="#ed1c24" stroke-width=".1041" d="M94.844 70.73c-.168.168-.336.293-.336.543-.125-.082-.207-.332-.25-.5a.72.72 0 0 1 .586-.043Zm0 0"/>
  <path fill="#ed1c24" d="m94.383 73.023-.496-.168c0-.125.246-.293.37-.418 0 .168 0 .418.126.586"/>
  <path fill="none" stroke="#ed1c24" stroke-width=".1041" d="m94.383 73.023-.496-.168c0-.125.246-.293.37-.418 0 .168 0 .418.126.586Zm0 0"/>
  <path fill="#ed1c24" d="m101.96 73.563-.335-.333a.7.7 0 0 1 .5-.207z"/>
  <path fill="none" stroke="#ed1c24" stroke-width=".1041" d="m101.96 73.563-.335-.333a.7.7 0 0 1 .5-.207Zm0 0"/>
  <path fill="#ed1c24" d="M95.05 74.602c-.081.043-.374.043-.542 0l.25-.582z"/>
  <path fill="none" stroke="#ed1c24" stroke-width=".1041" d="M95.05 74.602c-.081.043-.374.043-.542 0l.25-.582Zm0 0"/>
  <path fill="#ed1c24" d="M101.96 75.395c-.042-.168.083-.332.165-.5l.293.539z"/>
  <path fill="none" stroke="#ed1c24" stroke-width=".1041" d="M101.96 75.395c-.042-.168.083-.332.165-.5l.293.539Zm0 0"/>
  <path fill="#ed1c24" stroke="#ed1c24" stroke-width=".1041" d="m103.625 76.477-.125-.5.5.168Zm0 0"/>
  <path fill="#fff" d="M121.23 37.063c1.415 2.746.832 6.574-1.332 8.78-2.207 2.454-5.703 3.29-8.824 2.165-2.414-.875-4.578-3.246-5.035-5.742-.668-3.457.621-6.746 3.578-8.618 2.332-1.582 6.078-1.625 8.45-.082 1.331.79 2.538 2.121 3.163 3.496m-8.117-2.876c-1.664.211-3.203 1-4.203 2.458.914.667 1.79 1.414 2.79 2 .456-.625 1.12-.918 1.831-1.086Zm1.707 0c-.168 1.126-.293 2.29-.418 3.415.707.082 1.293.5 1.793 1.082.957-.582 1.871-1.371 2.785-2.121-1.082-1.333-2.496-2.208-4.16-2.376m1.871 5.122c.211.707.125 1.539-.039 2.207l3.078 1.246.125-.04c.543-1.417.625-3.331-.082-4.702a66 66 0 0 0-3.082 1.289m-8.699-1.25c-.582 1.418-.707 3.414 0 4.828 1.082-.414 2.125-.832 3.164-1.332-.207-.664-.207-1.582 0-2.203Zm8.242 4.164c-.5.625-1.164.914-1.87 1.082q.184 1.747.5 3.37c1.206-.124 2.245-.624 3.16-1.413.374-.293.792-.625.917-1.082a62 62 0 0 0-2.707-1.957m-4.62.082-2.622 2-.039.125c1.121 1.332 2.578 2.164 4.242 2.328.086-1.121.293-2.246.293-3.371-.375-.082-.75-.25-1.125-.457-.25-.168-.5-.457-.75-.625"/>
  <path fill="none" stroke="#000" stroke-width=".31220000000000003" d="M121.23 37.063c1.415 2.746.832 6.574-1.332 8.78-2.207 2.454-5.703 3.29-8.824 2.165-2.414-.875-4.578-3.246-5.035-5.742-.668-3.457.621-6.746 3.578-8.618 2.332-1.582 6.078-1.625 8.45-.082 1.331.79 2.538 2.121 3.163 3.496Zm-8.117-2.876c-1.664.211-3.203 1-4.203 2.458.914.667 1.79 1.414 2.79 2 .456-.625 1.12-.918 1.831-1.086Zm1.707 0c-.168 1.126-.293 2.29-.418 3.415.707.082 1.293.5 1.793 1.082.957-.582 1.871-1.371 2.785-2.121-1.082-1.333-2.496-2.208-4.16-2.376Zm1.871 5.122c.211.707.125 1.539-.039 2.207l3.078 1.246.125-.04c.543-1.417.625-3.331-.082-4.702a66 66 0 0 0-3.082 1.289Zm-8.699-1.25c-.582 1.418-.707 3.414 0 4.828 1.082-.414 2.125-.832 3.164-1.332-.207-.664-.207-1.582 0-2.203Zm8.242 4.164c-.5.625-1.164.914-1.87 1.082.124 1.164.288 2.289.5 3.37 1.206-.124 2.245-.624 3.16-1.413.374-.293.792-.625.917-1.082a62 62 0 0 0-2.707-1.957Zm-4.62.082-2.622 2-.039.125c1.121 1.332 2.578 2.164 4.242 2.328.086-1.121.293-2.246.293-3.371-.375-.082-.75-.25-1.125-.457-.25-.168-.5-.457-.75-.625Zm0 0"/>
  <path fill="#ed1c24" d="M113.3 40.453a.58.58 0 1 1 1.161-.004.58.58 0 0 1-1.16.004"/>
  <path fill="none" stroke="#000" stroke-width=".31220000000000003" d="M113.3 40.453a.58.58 0 1 1 1.161-.004.58.58 0 0 1-1.16.004Zm0 0"/>
  <path fill="#231f20" d="M20.512 132.766v-14.317h2.89v6.36l5.84-6.36h3.887l-5.39 5.578 5.683 8.739h-3.738l-3.938-6.72-2.344 2.395v4.325zM37.074 127.582q0 1.541.735 2.363c.488.543 1.09.82 1.804.82.719 0 1.317-.277 1.801-.82q.731-.822.73-2.382c0-1.02-.242-1.797-.73-2.344-.484-.551-1.082-.82-1.8-.82-.716 0-1.317.269-1.805.82q-.734.818-.735 2.363m-2.812-.148q0-1.365.675-2.649a4.6 4.6 0 0 1 1.907-1.95q1.237-.673 2.761-.675c1.567 0 2.856.508 3.856 1.528q1.505 1.53 1.504 3.863.001 2.355-1.516 3.902Q41.927 133 39.625 133a6 6 0 0 1-2.719-.645 4.4 4.4 0 0 1-1.968-1.89q-.675-1.243-.676-3.031M45.914 122.395h1.523v-.782q.001-1.306.278-1.953c.187-.43.527-.777 1.023-1.05q.75-.404 1.89-.403c.782 0 1.548.113 2.298.352l-.371 1.914a5.4 5.4 0 0 0-1.262-.157q-.593-.002-.852.278c-.175.183-.261.543-.261 1.066v.735h2.05v2.16h-2.05v8.21h-2.742v-8.21h-1.524zM53.773 132.766v-10.371h2.747v10.37Zm0-11.778v-2.539h2.747v2.54zM68.766 132.766H66.02v-5.293q-.001-1.68-.176-2.172a1.55 1.55 0 0 0-.57-.77c-.262-.18-.583-.27-.954-.27q-.714 0-1.277.391a1.96 1.96 0 0 0-.777 1.035q-.211.641-.211 2.383v4.696h-2.742v-10.371h2.546v1.523q1.361-1.758 3.418-1.758.91 0 1.66.328.755.328 1.141.832c.254.34.434.723.535 1.157.102.425.153 1.043.153 1.843zM77.27 127.785q-.527.176-1.668.422-1.144.24-1.497.477-.537.382-.535.968.001.575.43.996.43.418 1.094.418.742-.001 1.414-.488.497-.37.656-.91c.07-.23.106-.68.106-1.336Zm-3.672-2.226-2.489-.45q.422-1.506 1.446-2.226 1.025-.721 3.047-.723 1.832 0 2.734.434.898.436 1.262 1.105.368.67.367 2.453l-.028 3.207q-.001 1.365.133 2.016.129.65.493 1.39h-2.715q-.106-.272-.266-.808-.07-.247-.098-.324a4.9 4.9 0 0 1-1.504 1.023 4.25 4.25 0 0 1-1.707.344q-1.6 0-2.527-.867-.92-.871-.922-2.2 0-.879.422-1.566.42-.69 1.176-1.054.758-.368 2.183-.641 1.924-.361 2.665-.676v-.27q0-.795-.391-1.128c-.262-.227-.75-.336-1.473-.336q-.733-.001-1.144.285c-.274.191-.492.531-.664 1.012M92.105 132.766H89.36v-5.293q0-1.68-.175-2.172a1.53 1.53 0 0 0-.57-.77q-.398-.27-.954-.27c-.476 0-.898.13-1.277.391a1.96 1.96 0 0 0-.778 1.035q-.21.641-.21 2.383v4.696h-2.743v-10.371H85.2v1.523q1.357-1.758 3.418-1.758.91 0 1.66.328.756.328 1.137.832c.258.34.438.723.54 1.157.1.425.151 1.043.151 1.843zM93.785 132.766v-2.137l3.887-4.465q.957-1.094 1.414-1.55-.476.027-1.258.038l-3.664.016v-2.273h8.574v1.945l-3.965 4.566-1.394 1.516c.762-.043 1.23-.067 1.414-.067h4.25v2.41zM104.887 132.766v-10.371h2.746v10.37Zm0-11.778v-2.539h2.746v2.54zM116.605 126.691q-.028-1.19-.613-1.812a1.9 1.9 0 0 0-1.426-.617q-.897-.002-1.484.652c-.39.438-.586 1.027-.578 1.777Zm-.156 2.774 2.735.457q-.528 1.507-1.664 2.293-1.137.785-2.848.785c-1.805 0-3.137-.59-4.004-1.766q-1.024-1.416-1.023-3.578 0-2.574 1.347-4.035c.899-.973 2.031-1.46 3.406-1.46q2.316-.001 3.653 1.526c.89 1.02 1.32 2.583 1.281 4.684h-6.875c.02.813.238 1.445.664 1.899q.633.68 1.582.68.645 0 1.082-.352.44-.354.664-1.133M124.195 132.766h-2.746v-10.371H124v1.472q.656-1.041 1.176-1.375a2.16 2.16 0 0 1 1.187-.332q.938-.001 1.805.52l-.848 2.39c-.465-.3-.89-.449-1.289-.449q-.578 0-.976.317c-.27.21-.477.593-.63 1.148-.155.555-.23 1.71-.23 3.477zM134.105 122.395v2.187h-1.875v4.18q.001 1.27.055 1.48.053.208.242.348.196.136.465.137.38-.001 1.106-.266l.234 2.129q-.958.41-2.168.41-.743.001-1.34-.25-.592-.246-.875-.645-.275-.391-.383-1.07-.089-.475-.09-1.93v-4.523h-1.257v-2.187h1.258v-2.06l2.753-1.6v3.66zM144.418 132.766l-4.18-10.371h2.883l1.953 5.293.567 1.769q.222-.674.28-.89c.095-.294.188-.587.294-.88l1.972-5.292h2.825l-4.121 10.37zM154.867 127.582q0 1.541.735 2.363c.488.543 1.09.82 1.804.82.715 0 1.317-.277 1.805-.82q.726-.822.726-2.382c0-1.02-.242-1.797-.726-2.344-.488-.551-1.09-.82-1.805-.82s-1.316.269-1.804.82q-.734.818-.735 2.363m-2.812-.148q0-1.365.675-2.649a4.6 4.6 0 0 1 1.91-1.95c.82-.448 1.743-.675 2.758-.675q2.356-.001 3.856 1.528 1.505 1.53 1.504 3.863c0 1.57-.504 2.87-1.52 3.902q-1.517 1.547-3.82 1.547a6.04 6.04 0 0 1-2.723-.645 4.42 4.42 0 0 1-1.965-1.89q-.674-1.243-.675-3.031M164.703 122.395h2.527v1.418q1.36-1.653 3.235-1.653.995 0 1.726.41.734.41 1.204 1.243.683-.833 1.472-1.243a3.6 3.6 0 0 1 1.692-.41q1.142 0 1.933.465c.528.309.918.762 1.18 1.363.187.442.285 1.157.285 2.149v6.629h-2.746v-5.926q0-1.547-.281-1.992-.381-.586-1.172-.586c-.387 0-.746.117-1.086.351-.336.235-.582.575-.73 1.028q-.228.68-.227 2.144v4.98h-2.742v-5.683q-.001-1.513-.149-1.953-.147-.44-.453-.652-.31-.216-.836-.215c-.422 0-.805.113-1.14.34-.34.23-.583.554-.73.988q-.219.643-.22 2.137v5.039h-2.742zM0 156.766v-14.2h2.89v11.786h7.188v2.414zM17.844 151.785c-.356.117-.91.258-1.672.422q-1.144.24-1.496.477-.535.38-.535.964 0 .581.43.997c.284.28.652.421 1.093.421q.744-.001 1.418-.488.493-.37.652-.91c.07-.234.11-.68.11-1.336Zm-3.676-2.226-2.488-.45q.42-1.506 1.445-2.226 1.026-.721 3.047-.723c1.223 0 2.137.145 2.734.434q.897.433 1.266 1.105.363.668.363 2.453l-.027 3.203q-.001 1.37.133 2.02.129.646.492 1.39h-2.715c-.07-.183-.16-.452-.262-.808-.047-.164-.078-.273-.101-.324a4.8 4.8 0 0 1-1.504 1.023 4.25 4.25 0 0 1-1.707.344q-1.602 0-2.524-.871-.924-.867-.922-2.195-.002-.88.418-1.567.422-.69 1.176-1.054c.504-.247 1.235-.458 2.184-.641q1.923-.362 2.668-.672v-.277c0-.528-.133-.903-.39-1.125q-.394-.34-1.477-.34-.735 0-1.141.289c-.277.191-.496.527-.668 1.012M32.676 156.766H29.93v-5.293q-.001-1.68-.172-2.172a1.53 1.53 0 0 0-.574-.77 1.65 1.65 0 0 0-.954-.273c-.472 0-.898.133-1.277.39-.379.262-.637.61-.777 1.036q-.209.647-.207 2.382v4.7h-2.746v-10.371h2.55v1.523q1.355-1.758 3.418-1.758c.602 0 1.157.11 1.657.328q.755.328 1.14.832.382.509.535 1.153.153.646.153 1.847zM37.648 151.355q0 1.659.457 2.403.665 1.073 1.856 1.074c.633 0 1.168-.27 1.613-.805q.661-.807.66-2.41c0-1.191-.21-2.047-.64-2.57-.434-.524-.98-.79-1.653-.79-.652 0-1.195.263-1.636.778-.438.52-.657 1.29-.657 2.32m7.32 5.41h-2.546v-1.523c-.422.594-.922 1.031-1.5 1.324a3.84 3.84 0 0 1-1.742.434q-1.786 0-3.063-1.441-1.272-1.442-1.273-4.016 0-2.642 1.242-4.012 1.238-1.37 3.133-1.37c1.16 0 2.16.48 3.008 1.444v-5.156h2.742zM56.152 148.504h2.137q2.08 0 2.602-.176.515-.177.808-.605.293-.43.293-1.075c0-.484-.129-.87-.387-1.168q-.386-.445-1.085-.562c-.239-.031-.938-.047-2.114-.047h-2.254Zm-2.89 8.262v-14.317h6.082q2.297 0 3.336.387c.695.258 1.25.71 1.664 1.371q.626.985.625 2.258.002 1.61-.946 2.66-.946 1.05-2.832 1.32c.625.368 1.141.766 1.547 1.203q.613.653 1.649 2.325l1.746 2.793h-3.457l-2.09-3.118q-1.113-1.666-1.523-2.101-.41-.434-.868-.598-.462-.159-1.457-.16h-.586v5.977zM70.41 142.45v5.26c.887-1.034 1.942-1.55 3.176-1.55q.945 0 1.707.352.761.35 1.148.898c.258.363.43.77.528 1.211q.14.663.14 2.059v6.086h-2.746v-5.477q0-1.636-.152-2.07a1.36 1.36 0 0 0-.555-.7c-.261-.171-.594-.261-.992-.261q-.68 0-1.219.336-.539.33-.785 1-.251.666-.25 1.976v5.196h-2.746v-14.317zM86.055 150.691q-.029-1.19-.614-1.812a1.9 1.9 0 0 0-1.425-.621q-.904 0-1.485.656c-.39.438-.586 1.027-.578 1.777Zm-.157 2.774 2.735.46q-.528 1.499-1.664 2.29-1.137.785-2.848.785c-1.805 0-3.137-.59-4.004-1.77q-1.024-1.41-1.023-3.574c0-1.719.445-3.062 1.347-4.035.899-.973 2.032-1.46 3.407-1.46q2.315-.001 3.652 1.526c.89 1.02 1.32 2.583 1.281 4.684h-6.875q.025 1.219.664 1.899.633.68 1.582.68.645 0 1.082-.352.44-.354.664-1.133M91.016 156.766v-10.371h2.746v10.37Zm0-11.778v-2.539h2.746v2.54zM106.008 156.766h-2.746v-5.293q0-1.68-.176-2.172a1.55 1.55 0 0 0-.57-.77 1.66 1.66 0 0 0-.954-.273c-.476 0-.902.133-1.28.39a2 2 0 0 0-.774 1.036q-.21.647-.211 2.382v4.7H96.55v-10.371h2.55v1.523q1.359-1.758 3.419-1.758.909 0 1.66.328c.5.219.882.496 1.136.832q.387.509.54 1.153c.097.43.152 1.047.152 1.847zM108.79 156.766v-14.317h2.741v14.317zM120.066 151.785c-.347.117-.906.258-1.668.422q-1.14.24-1.496.477-.534.38-.535.964.001.581.43.997.43.42 1.094.421c.496 0 .964-.164 1.418-.488.332-.246.546-.55.652-.91q.105-.352.105-1.336Zm-3.671-2.226-2.489-.45q.42-1.506 1.446-2.226 1.025-.721 3.046-.723 1.836 0 2.735.434.897.433 1.265 1.105.366.668.368 2.453l-.032 3.203q-.001 1.37.133 2.02.129.646.492 1.39h-2.714c-.07-.183-.16-.452-.262-.808a3 3 0 0 0-.102-.324 4.9 4.9 0 0 1-1.504 1.023 4.25 4.25 0 0 1-1.707.344c-1.066 0-1.91-.29-2.523-.871q-.926-.867-.926-2.195 0-.88.422-1.567.42-.69 1.176-1.054.76-.369 2.183-.641 1.924-.362 2.664-.672v-.277q0-.792-.386-1.125-.393-.34-1.477-.34-.731 0-1.14.289c-.278.191-.497.527-.668 1.012M134.902 156.766h-2.746v-5.293c0-1.121-.054-1.844-.176-2.172a1.53 1.53 0 0 0-.57-.77 1.65 1.65 0 0 0-.95-.273c-.476 0-.901.133-1.28.39-.38.262-.637.61-.778 1.036-.136.43-.21 1.226-.21 2.382v4.7h-2.743v-10.371h2.547v1.523q1.36-1.758 3.418-1.758.91 0 1.66.328.755.328 1.14.832c.259.34.434.723.536 1.153q.153.646.152 1.847zM139.871 151.355q.002 1.659.461 2.403c.441.715 1.063 1.074 1.856 1.074.632 0 1.167-.27 1.613-.805q.663-.807.664-2.41c0-1.191-.219-2.047-.649-2.57-.425-.524-.976-.79-1.648-.79-.652 0-1.195.263-1.637.778-.437.52-.66 1.29-.66 2.32m7.324 5.41h-2.547v-1.523c-.421.594-.921 1.031-1.5 1.324a3.84 3.84 0 0 1-1.742.434q-1.785 0-3.062-1.441-1.273-1.442-1.274-4.016 0-2.642 1.243-4.012 1.238-1.37 3.132-1.37 1.738-.001 3.008 1.444v-5.156h2.742zM149.59 152.945v-2.742h5.39v2.742zM159.473 144.871v4.063h1.582q1.71 0 2.285-.227.574-.223.902-.7a1.93 1.93 0 0 0 .328-1.116q.001-.78-.46-1.29a2 2 0 0 0-1.16-.632q-.518-.1-2.083-.098Zm-2.891 11.895v-14.317h4.64q2.637-.001 3.434.215c.824.215 1.508.684 2.063 1.402q.832 1.08.832 2.786c0 .878-.16 1.62-.48 2.218-.321.598-.723 1.07-1.216 1.41q-.738.515-1.5.68-1.035.204-3 .203h-1.882v5.403zM168.7 146.395h1.527v-.782c0-.875.09-1.523.277-1.953q.278-.646 1.023-1.05.75-.404 1.891-.403c.781 0 1.547.113 2.297.348l-.371 1.914a5.6 5.6 0 0 0-1.262-.156q-.598 0-.855.28-.258.276-.258 1.067v.735h2.05v2.156h-2.05v8.215h-2.742v-8.215h-1.528zM182.285 151.785q-.525.176-1.672.422-1.139.24-1.492.477c-.36.254-.535.574-.535.964 0 .387.14.72.43.997q.427.42 1.09.421.744-.001 1.417-.488.498-.37.657-.91.105-.352.105-1.336Zm-3.672-2.226-2.492-.45c.281-1.004.766-1.746 1.445-2.226q1.032-.721 3.047-.723c1.227 0 2.137.145 2.739.434q.897.433 1.261 1.105.368.668.367 2.453l-.03 3.203q.001 1.37.132 2.02.135.646.492 1.39h-2.715q-.104-.274-.261-.808-.07-.247-.098-.324a4.9 4.9 0 0 1-1.504 1.023 4.3 4.3 0 0 1-1.71.344q-1.6 0-2.524-.871-.922-.867-.922-2.195 0-.88.422-1.567c.277-.46.672-.812 1.175-1.054q.756-.369 2.18-.641 1.926-.362 2.668-.672v-.277q0-.792-.39-1.125c-.262-.227-.75-.34-1.473-.34q-.733 0-1.145.289-.41.285-.664 1.012M187.688 156.766v-14.317h2.742v14.317z"/>
  <g clip-path="url(#e)">
    <path fill="#231f20" d="M192.14 156.766v-2.141l3.883-4.46q.962-1.095 1.418-1.556-.48.035-1.257.04l-3.664.019v-2.273h8.574v1.94l-3.965 4.571-1.399 1.516q1.143-.07 1.418-.07h4.247v2.414z"/>
  </g>
</svg>
