<svg xmlns="http://www.w3.org/2000/svg" xmlns:xlink="http://www.w3.org/1999/xlink" width="392pt" height="121pt" viewBox="0 0 392 121">
  <defs>
    <clipPath id="a">
      <path d="M0 4.7h150V80H0Zm0 0"/>
    </clipPath>
    <clipPath id="b">
      <path d="M0 4.7h153V83H0Zm0 0"/>
    </clipPath>
    <clipPath id="c">
      <path d="M3 20h166.602v86H3Zm0 0"/>
    </clipPath>
    <clipPath id="d">
      <path d="M0 16h169.602v95H0Zm0 0"/>
    </clipPath>
  </defs>
  <path d="M156.414 57.691c-7.32 19.66-28.086 29.985-46.656 34.766-13.742 3.797-29.524 4.707-44.094 3.113l3.625-1.668c17.668 1.59 35.86-1.066 51.414-7.062 13.211-4.934 27.633-14.195 33.145-28.238z"/>
  <path fill="none" stroke="#000" stroke-width=".4162" d="M156.414 57.691c-7.32 19.66-28.086 29.985-46.656 34.766-13.742 3.797-29.524 4.707-44.094 3.113l3.625-1.668c17.668 1.59 35.86-1.066 51.414-7.062 13.211-4.934 27.633-14.195 33.145-28.238Zm0 0"/>
  <path fill="#fff200" d="M159.438 56.398c.226-1.289.074-2.808.98-3.945 2.113-1.215 5.812-1.594 5.89-4.933-.078-1.747-.605-3.493-2.117-4.329-1.507-.379-3.093.075-4.453.532-4.593.304-.851-4.602-3.379-6.364-9.156 2.664-23.203 7.266-44.52 15.211-18.648 6.953-59.741 26.942-83.925 41.86 0 1.062.227 2.05 1.055 2.734 1.586 1.594 3.777.152 5.511 0 .68 0 1.133.305 1.434.91 1.059 3.04-2.715 3.266-4.227 4.781-1.812 1.446-4.226 2.508-4.832 4.938-.378 1.594 0 3.187 1.06 4.402 1.206 1.29 3.093 1.594 4.679 1.063l7.777-4.328 25.293-13.36 8.832-4.402 19.48-9.035a551 551 0 0 1 28.465-11.992l17.137-6.606c4.758-1.668 9.438-3.414 14.27-4.933 0 0 4.832-1.368 5.59-2.204"/>
  <path fill="none" stroke="#fff200" stroke-width=".4162" d="M159.438 56.398c.226-1.289.074-2.808.98-3.945 2.113-1.215 5.812-1.594 5.89-4.933-.078-1.747-.605-3.493-2.117-4.329-1.507-.379-3.093.075-4.453.532-4.593.304-.851-4.602-3.379-6.364-9.156 2.664-23.203 7.266-44.52 15.211-18.648 6.953-59.741 26.942-83.925 41.86 0 1.062.227 2.05 1.055 2.734 1.586 1.594 3.777.152 5.511 0 .68 0 1.133.305 1.434.91 1.059 3.04-2.715 3.266-4.227 4.781-1.812 1.446-4.226 2.508-4.832 4.938-.378 1.594 0 3.187 1.06 4.402 1.206 1.29 3.093 1.594 4.679 1.063l7.777-4.328 25.293-13.36 8.832-4.402 19.48-9.035a551 551 0 0 1 28.465-11.992l17.137-6.606c4.758-1.668 9.438-3.414 14.27-4.933 0 0 4.832-1.368 5.59-2.204Zm0 0"/>
  <g clip-path="url(#a)">
    <path d="m135.355 23.27 7.485-2.23h.004c.094-.083.191-.161.285-.243 2.113-.91 4.98-.832 6.191-3.262.754-1.293.602-3.191-.304-4.402-2.567-3.418-6.266-.457-9.211.148-1.508.305-3.621 1.367-4.832-.226-1.36-1.973.152-4.48-.98-6.528-.981-2.125-3.548-1.52-5.36-1.215-8.684 2.583-17.067 6.149-25.52 9.336-18.347.079-36.242 4.176-51.265 13.438.754.227 1.586.379 2.34.684a86 86 0 0 1 16.46-7.215c8.305-2.578 17.29-4.403 26.348-4.63-.68.458-1.508.837-2.34.91-5.89 2.583-11.703 4.86-17.668 7.517l-20.386 9.187c-14.27 6.832-28.086 14.348-41.977 22.012h-.379c-.68-17.156 16.383-29.985 30.277-35.602 11.778-5.086 24.688-7.515 38.13-8.273-.454-.762-1.06-1.14-1.739-1.746l-3.852.226c-7.324.531-14.496 1.977-21.363 3.723-5.21 1.742-10.496 3.414-15.406 5.844-13.816 6.527-29.367 19.965-28.086 37.043l-5.965 3.57c-1.887 1.441-4.527 2.047-5.738 4.402-.453 1.063-.375 2.426.152 3.414.754 1.368 2.192 2.203 3.774 2.125 2.718-.379 5.285-1.593 7.777-2.808.758-.227 1.66-.531 2.492-.227.68.305.98 1.215.754 1.899-.527 2.882-4.68 3.035-4.074 6.453.074 1.367 1.055 2.656 2.187 3.261 0 0 3.961-1.187 40.38-21.289 36.417-20.105 81.41-35.296 81.41-35.296"/>
  </g>
  <g clip-path="url(#b)">
    <path fill="none" stroke="#000" stroke-width=".4162" d="m135.355 23.27 7.485-2.23h.004c.094-.083.191-.161.285-.243 2.113-.91 4.98-.832 6.191-3.262.754-1.293.602-3.191-.304-4.402-2.567-3.418-6.266-.457-9.211.148-1.508.305-3.621 1.367-4.832-.226-1.36-1.973.152-4.48-.98-6.528-.981-2.125-3.548-1.52-5.36-1.215-8.684 2.583-17.067 6.149-25.52 9.336-18.347.079-36.242 4.176-51.265 13.438.754.227 1.586.379 2.34.684a86 86 0 0 1 16.46-7.215c8.305-2.578 17.29-4.403 26.348-4.63-.68.458-1.508.837-2.34.91-5.89 2.583-11.703 4.86-17.668 7.517l-20.386 9.187c-14.27 6.832-28.086 14.348-41.977 22.012h-.379c-.68-17.156 16.383-29.985 30.277-35.602 11.778-5.086 24.688-7.515 38.13-8.273-.454-.762-1.06-1.14-1.739-1.746l-3.852.226c-7.324.531-14.496 1.977-21.363 3.723-5.21 1.742-10.496 3.414-15.406 5.844-13.816 6.527-29.367 19.965-28.086 37.043l-5.965 3.57c-1.887 1.441-4.527 2.047-5.738 4.402-.453 1.063-.375 2.426.152 3.414.754 1.368 2.192 2.203 3.774 2.125 2.718-.379 5.285-1.593 7.777-2.808.758-.227 1.66-.531 2.492-.227.68.305.98 1.215.754 1.899-.527 2.882-4.68 3.035-4.074 6.453.074 1.367 1.055 2.656 2.187 3.261 0 0 3.961-1.187 40.38-21.289 36.417-20.105 81.41-35.296 81.41-35.296Zm0 0"/>
  </g>
  <g clip-path="url(#c)">
    <path fill="#ed1c24" d="M164.191 34.766c1.813-.532 3.852-1.672 4.606-3.645.605-1.52.305-3.34-.906-4.629-1.13-1.062-3.02-.683-4.375-.23-1.059-.153-1.965.836-2.871.304-.38-.605.152-1.367.601-1.972.606-1.063.078-2.356-.601-3.266-.68-.457-1.586-.531-2.34-.457-3.098.457-6.192 1.598-8.985 2.43-2.191.457-4.683 2.43-6.797.683a1.64 1.64 0 0 1-.601-1.515c0-.63.46-1.047.922-1.43h-.004l-7.485 2.23s-44.992 15.192-81.41 35.297c-36.418 20.102-40.379 21.29-40.379 21.29-1.207.835-2.414 1.976-3.093 3.34-.38 1.367.148 2.734 1.28 3.644 2.04 1.215 3.852-.836 5.74-1.29.679.227 1.132.837 1.433 1.516.304.532.152 1.52-.223 1.899-4.078 2.734-8.457 5.086-12.61 7.668-.98.531-1.738 1.594-2.113 2.582-.68 1.972.075 3.87 1.434 5.086 1.207 1.062 3.02 1.215 4.531.758 6.114-3.266 11.926-7.286 17.97-10.63C52.097 79.513 93.19 59.524 111.84 52.57c21.316-7.945 35.363-12.547 44.52-15.21l-.02-.012c2.566-.989 5.21-1.672 7.851-2.582"/>
  </g>
  <g clip-path="url(#d)">
    <path fill="none" stroke="#ed1c24" stroke-width=".8324" d="M164.191 34.766c1.813-.532 3.852-1.672 4.606-3.645.605-1.52.305-3.34-.906-4.629-1.13-1.062-3.02-.683-4.375-.23-1.059-.153-1.965.836-2.871.304-.38-.605.152-1.367.601-1.972.606-1.063.078-2.356-.601-3.266-.68-.457-1.586-.531-2.34-.457-3.098.457-6.192 1.598-8.985 2.43-2.191.457-4.683 2.43-6.797.683a1.64 1.64 0 0 1-.601-1.515c0-.63.46-1.047.922-1.43h-.004l-7.485 2.23s-44.992 15.192-81.41 35.297c-36.418 20.102-40.379 21.29-40.379 21.29-1.207.835-2.414 1.976-3.093 3.34-.38 1.367.148 2.734 1.28 3.644 2.04 1.215 3.852-.836 5.74-1.29.679.227 1.132.837 1.433 1.516.304.532.152 1.52-.223 1.899-4.078 2.734-8.457 5.086-12.61 7.668-.98.531-1.738 1.594-2.113 2.582-.68 1.972.075 3.87 1.434 5.086 1.207 1.062 3.02 1.215 4.531.758 6.114-3.266 11.926-7.286 17.97-10.63C52.097 79.513 93.19 59.524 111.84 52.57c21.316-7.945 35.363-12.547 44.52-15.21l-.02-.012c2.566-.989 5.21-1.672 7.851-2.582Zm0 0"/>
  </g>
  <path fill="#fff" d="M85.406 32.902H62.824V62.32c1.93 14.094 11.758 20.309 22.16 20.399v.004h.227v-.004c10.398-.09 20.23-6.305 22.156-20.399V32.902z"/>
  <path fill="none" stroke="#fff" stroke-width=".31220000000000003" d="M85.406 32.902H62.824V62.32c1.93 14.094 11.758 20.309 22.16 20.399v.004h.227v-.004c10.398-.09 20.23-6.305 22.156-20.399V32.902Zm0 0"/>
  <path fill="none" stroke="#000" stroke-width=".31220000000000003" d="M77.023 56.113c5.73-9.816 7.848-21.59 8.043-22.722H63.262v28.84c.379 2.769 1.074 5.222 2.015 7.386a20 20 0 0 1-.218-.508c.87-.453 6.5-3.632 11.964-12.996Zm0 0"/>
  <path fill="#ed1c24" d="M105.176 68.996c-.098.242-.196.473-.297.707.96-2.183 1.668-4.668 2.055-7.473V33.39H85.102c.793 4.083 4.335 16.524 8.043 22.723 5.308 8.89 10.777 12.207 12.03 12.883"/>
  <path fill="none" stroke="#ed1c24" stroke-width=".2081" d="M105.176 68.996a30 30 0 0 1-.297.707c.96-2.183 1.668-4.668 2.055-7.473V33.39H85.102c.793 4.083 4.335 16.524 8.043 22.723 5.308 8.89 10.777 12.207 12.03 12.883Zm0 0"/>
  <path fill="none" stroke="#000" stroke-width=".31220000000000003" d="M85.402 33.39h-22.14v28.84c1.89 13.817 11.527 19.915 21.722 20v.004h.223v-.004c10.2-.085 19.832-6.183 21.727-20V33.39Zm0 0"/>
  <path fill="#ed1c24" d="M83.059 42.875h-7.336v-9.484h-5.418v9.484h-7.043v5.305h7.043v16.664h5.418V48.18h7.336z"/>
  <path fill="none" stroke="#000" stroke-width=".31220000000000003" d="M83.059 42.875h-7.336v-9.484h-5.418v9.484h-7.043v5.305h7.043v16.664h5.418V48.18h7.336Zm0 0"/>
  <path d="M85.082 33.293s-.004.039-.016.098h.036zM93.145 56.113c-5.258-8.797-7.813-21.547-8.043-22.722h-.036c-.195 1.132-2.312 12.906-8.043 22.722C71.56 65.477 65.93 68.656 65.06 69.11c3.675 8.985 11.613 13.051 19.925 13.121v.004h.223v-.004c8.348-.07 16.313-4.171 19.969-13.234-1.254-.676-6.723-3.992-12.031-12.883"/>
  <path fill="none" stroke="#000" stroke-width=".31220000000000003" d="M93.145 56.113c-5.258-8.797-7.813-21.547-8.043-22.722h-.036c-.195 1.132-2.312 12.906-8.043 22.722C71.56 65.477 65.93 68.656 65.06 69.11c3.675 8.985 11.613 13.051 19.925 13.121v.004h.223v-.004c8.348-.07 16.313-4.171 19.969-13.234-1.254-.676-6.723-3.992-12.031-12.883Zm0 0"/>
  <path fill="#fff200" d="m87.66 53.57-.043.582c.332.293.75.543 1.207.332.043.586-.625.918-.914 1.293.457.25 1.082.457 1.707.29-.043.292-.21.667-.46.917s-.626.332-.958.371a1.66 1.66 0 0 0 1.625.418c-.043.418-.375.793-.75.957l-.5.125c0 .333.207.625.457.875l.586.333c-.086.207-.25.292-.46.374-.25 0-.458-.207-.665-.25-.043.418.164.793.414 1.083.211.25.5.332.75.5-.289.582-.957.625-1.496.582.082.707.29 1.418.957 1.875-.5.246-1.293.375-1.75-.043-.289.168-.207.625-.332.914-.207.418-.5 1-1.039 1.125.082-.707 0-1.5-.336-2.121-.332 0-.289.5-.5.707-.457.582-1.078.875-1.746.996.25-.621.332-1.453.168-2.203-.293.457-.625 1.039-1.125 1.246-.5.21-1.082.336-1.664.25.664-.54 1.039-1.328.914-2.164-.75.46-1.332 1.375-2.246 1.375.375-.707.75-1.582.707-2.496-.5.414-.914 1.332-1.707.996.543-.625.25-1.496-.043-2.121-.207-.915-1.621-.54-1.371-1.583.164-.457.707-.042.957-.289-.043-.25-.168-.71.207-.75.375-.043.457.375.707.582.168-.082.25-.375.418-.457.914.082.289 1.121.539 1.707.293.832 1.168 1.372 2.04 1.414.75.083 1.417-.332 1.75-1 .206-.5.25-1.124.25-1.707-.294-.125-.708.086-1-.039-.294-.043-.626-.168-.583-.5v-.125c.582.082 1.457.207 1.75-.5.164-.332.04-.75-.086-1.039-.539-.46-1.082.121-1.582.164-.332-.289-.457-.875-.332-1.289.707-.332 1.54-.668 1.832-1.5.707-.414 1.664-.664 2.54-.375.25-.539 1.038-.289 1.206.168"/>
  <path fill="none" stroke="#231f20" stroke-width=".2081" d="m87.66 53.57-.043.582c.332.293.75.543 1.207.332.043.586-.625.918-.914 1.293.457.25 1.082.457 1.707.29-.043.292-.21.667-.46.917s-.626.332-.958.371a1.66 1.66 0 0 0 1.625.418c-.043.418-.375.793-.75.957l-.5.125c0 .333.207.625.457.875l.586.333c-.086.207-.25.292-.46.374-.25 0-.458-.207-.665-.25-.043.418.164.793.414 1.083.211.25.5.332.75.5-.289.582-.957.625-1.496.582.082.707.29 1.418.957 1.875-.5.246-1.293.375-1.75-.043-.289.168-.207.625-.332.914-.207.418-.5 1-1.039 1.125.082-.707 0-1.5-.336-2.121-.332 0-.289.5-.5.707-.457.582-1.078.875-1.746.996.25-.621.332-1.453.168-2.203-.293.457-.625 1.039-1.125 1.246-.5.21-1.082.336-1.664.25.664-.54 1.039-1.328.914-2.164-.75.46-1.332 1.375-2.246 1.375.375-.707.75-1.582.707-2.496-.5.414-.914 1.332-1.707.996.543-.625.25-1.496-.043-2.121-.207-.915-1.621-.54-1.371-1.583.164-.457.707-.042.957-.289-.043-.25-.168-.71.207-.75.375-.043.457.375.707.582.168-.082.25-.375.418-.457.914.082.289 1.121.539 1.707.293.832 1.168 1.372 2.04 1.414.75.083 1.417-.332 1.75-1 .206-.5.25-1.124.25-1.707-.294-.125-.708.086-1-.039-.294-.043-.626-.168-.583-.5v-.125c.582.082 1.457.207 1.75-.5.164-.332.04-.75-.086-1.039-.539-.46-1.082.121-1.582.164-.332-.289-.457-.875-.332-1.289.707-.332 1.54-.668 1.832-1.5.707-.414 1.664-.664 2.54-.375.25-.539 1.038-.289 1.206.168Zm0 0"/>
  <path d="m85.66 55.11-.5-.208c-.164.25-.457.375-.707.25-.414-.25.125-.707-.25-.957v-.086c.543.211 1.168.461 1.457 1"/>
  <path fill="#fff" d="M84.488 54.906c-.07-.054-.004-.21-.004-.21l.125.269s-.046-.004-.12-.059"/>
  <path fill="#fff200" d="M91.406 58.523c.207.082.375-.168.582-.25l.664-.582c.125 1.29-.496 2.332-1.332 3.246l.086.043c.664-.25 1.371-.335 1.957-.75-.21 1.333-2.207 2.079-1.707 3.704.664 1.625 1.207 3.87.164 5.535-.289.457-.746.625-1.164.875-.5.914-.207 2.082-.168 3.12.918 0 1.875.083 2.332.958a.6.6 0 0 1 .082.293c-.414 0-1.039-.043-1.332.332.043.293.418.332.586.582.457.543.664 1.332.496 2.039-.332-.125-.746-.125-.957-.414-.082.039-.25.039-.25.164.211.668.418 1.668-.207 2.207-.039-.54-.332-1-.789-1.29-.25-.124-.625-.206-.832-.042-.586.457-1 1.082-1.293 1.75-.125.164-.375.207-.582.121-.207-.164-.207-.496-.207-.746-.332-.086-.457.582-.832.25-.25-.125-.293-.418-.21-.625.042-.25.5-.125.335-.457-.25-.043-.5-.168-.543-.418 0-.207-.043-.5.207-.582.336.168.711.293 1.125.125.375-.082.707-.457.875-.793.29-1.164-1-1.828-.832-2.91.375-1.332.332-2.875.832-4.164 0-1.04-1.207-.707-1.75-1.164-.789-.461-1.582-.832-2.246-1.5-.664.707-.914 1.707-1.75 2.289a7.6 7.6 0 0 0-.371-1.29c-.293.626-.418 1.372-1.043 1.915a4.6 4.6 0 0 1-1.289.914c.043-.496.082-1.121-.125-1.54-.543.708-1 1.665-1.875 2.083.043-.418.086-1-.082-1.414-.082-.043-.168 0-.25-.043-.125.543-.414 1.125-.996 1.332a.84.84 0 0 1-.543.043c.375-.586.418-1.543.125-2.164-.168-.211-.457-.293-.668-.168-.29.125-.54.5-.914.375-.125-.168-.293-.375-.125-.582.082-.211.457-.125.332-.461-.25-.125-.664-.29-.625-.664 0-.168.043-.375.25-.457.25-.086.543.207.625-.125-.125-.207-.29-.457-.125-.75.875-.418.957 1.125 1.875 1.039 1.082.336 2.082-.25 3.078-.457.668-.29 1.25-.957 1.29-1.707.792-.082 1.581-.29 2.124-.996.043.582-.043 1.12-.457 1.496v.168c1.082.039 2.078-.457 2.621-1.414.375.582.082 1.37.168 1.953.746-.125 1.332-.79 1.54-1.496 1.038.832 2.331 1.62 3.12 2.789.25.496.207 1.207.125 1.789.207.125.5-.043.668-.211 1.871-2.078 0-4.66-.336-6.824-.164-.914 0-1.872.125-2.747-.207-.5-.75-.917-.582-1.582.543-.957.668-2.082.707-3.289.832.918.5 2.457.293 3.54"/>
  <path fill="none" stroke="#231f20" stroke-width=".2081" d="M91.406 58.523c.207.082.375-.168.582-.25l.664-.582c.125 1.29-.496 2.332-1.332 3.246l.086.043c.664-.25 1.371-.335 1.957-.75-.21 1.333-2.207 2.079-1.707 3.704.664 1.625 1.207 3.87.164 5.535-.289.457-.746.625-1.164.875-.5.914-.207 2.082-.168 3.12.918 0 1.875.083 2.332.958a.6.6 0 0 1 .082.293c-.414 0-1.039-.043-1.332.332.043.293.418.332.586.582.457.543.664 1.332.496 2.039-.332-.125-.746-.125-.957-.414-.082.039-.25.039-.25.164.211.668.418 1.668-.207 2.207-.039-.54-.332-1-.789-1.29-.25-.124-.625-.206-.832-.042-.586.457-1 1.082-1.293 1.75-.125.164-.375.207-.582.121-.207-.164-.207-.496-.207-.746-.332-.086-.457.582-.832.25-.25-.125-.293-.418-.21-.625.042-.25.5-.125.335-.457-.25-.043-.5-.168-.543-.418 0-.207-.043-.5.207-.582.336.168.711.293 1.125.125.375-.082.707-.457.875-.793.29-1.164-1-1.828-.832-2.91.375-1.332.332-2.875.832-4.164 0-1.04-1.207-.707-1.75-1.164-.789-.461-1.582-.832-2.246-1.5-.664.707-.914 1.707-1.75 2.289a7.6 7.6 0 0 0-.371-1.29c-.293.626-.418 1.372-1.043 1.915a4.6 4.6 0 0 1-1.289.914c.043-.496.082-1.121-.125-1.54-.543.708-1 1.665-1.875 2.083.043-.418.086-1-.082-1.414-.082-.043-.168 0-.25-.043-.125.543-.414 1.125-.996 1.332a.84.84 0 0 1-.543.043c.375-.586.418-1.543.125-2.164-.168-.211-.457-.293-.668-.168-.29.125-.54.5-.914.375-.125-.168-.293-.375-.125-.582.082-.211.457-.125.332-.461-.25-.125-.664-.29-.625-.664 0-.168.043-.375.25-.457.25-.086.543.207.625-.125-.125-.207-.29-.457-.125-.75.875-.418.957 1.125 1.875 1.039 1.082.336 2.082-.25 3.078-.457.668-.29 1.25-.957 1.29-1.707.792-.082 1.581-.29 2.124-.996.043.582-.043 1.12-.457 1.496v.168c1.082.039 2.078-.457 2.621-1.414.375.582.082 1.37.168 1.953.746-.125 1.332-.79 1.54-1.496 1.038.832 2.331 1.62 3.12 2.789.25.496.207 1.207.125 1.789.207.125.5-.043.668-.211 1.871-2.078 0-4.66-.336-6.824-.164-.914 0-1.872.125-2.747-.207-.5-.75-.917-.582-1.582.543-.957.668-2.082.707-3.289.832.918.5 2.457.293 3.54Zm0 0"/>
  <path fill="#fff200" d="m88.2 70.094-.333 1.125c-1.039.539-2.582.664-2.953 2.039-.125.914.207 1.746 0 2.664-.086-.332-.25-.832-.668-.957 0 1.246.168 2.703-.789 3.578h-.043c0-.5-.168-.914-.418-1.25-.582.543-.664 1.418-1.332 1.875 0-.5 0-1-.457-1.25-.957-.414-1.332 1.789-2.121.5-.043-.125-.125-.332 0-.5.082-.125.375-.164.207-.375-.164-.082-.414 0-.54-.207-.124-.125-.124-.418-.042-.625.082-.25.582.043.5-.375-.168-.125-.457-.164-.418-.457-.04-.332.293-.5.5-.625.418-.125.543.375.793.582.457.25.996.336 1.496.21 1.79-1.331-.082-3.87 1.54-5.327 1.081-.957 2.538-1 3.706-1.707.457.375 1.703.082 1.371 1.082"/>
  <path fill="none" stroke="#231f20" stroke-width=".2081" d="m88.2 70.094-.333 1.125c-1.039.539-2.582.664-2.953 2.039-.125.914.207 1.746 0 2.664-.086-.332-.25-.832-.668-.957 0 1.246.168 2.703-.789 3.578h-.043c0-.5-.168-.914-.418-1.25-.582.543-.664 1.418-1.332 1.875 0-.5 0-1-.457-1.25-.957-.414-1.332 1.789-2.121.5-.043-.125-.125-.332 0-.5.082-.125.375-.164.207-.375-.164-.082-.414 0-.54-.207-.124-.125-.124-.418-.042-.625.082-.25.582.043.5-.375-.168-.125-.457-.164-.418-.457-.04-.332.293-.5.5-.625.418-.125.543.375.793.582.457.25.996.336 1.496.21 1.79-1.331-.082-3.87 1.54-5.327 1.081-.957 2.538-1 3.706-1.707.457.375 1.703.082 1.371 1.082Zm0 0"/>
  <path fill="#ed1c24" d="M82 56.984c.54.332 1.207-.168 1.707.207-.71.082-1.707.664-2.375 0-.207-.332-.125-.707-.043-1.082.086.332.336.75.711.875"/>
  <path fill="none" stroke="#ed1c24" stroke-width=".1041" d="M82 56.984c.54.332 1.207-.168 1.707.207-.71.082-1.707.664-2.375 0-.207-.332-.125-.707-.043-1.082.086.332.336.75.711.875Zm0 0"/>
  <path fill="#ed1c24" d="m78.293 57.691-.457.082.082-.457a.8.8 0 0 1 .375.375"/>
  <path fill="none" stroke="#ed1c24" stroke-width=".1041" d="m78.293 57.691-.457.082.082-.457a.8.8 0 0 1 .375.375Zm0 0"/>
  <path fill="#ed1c24" d="m79.918 57.941-.457-.125.25-.336c.125.086.164.293.207.461"/>
  <path fill="none" stroke="#ed1c24" stroke-width=".1041" d="m79.918 57.941-.457-.125.25-.336c.125.086.164.293.207.461Zm0 0"/>
  <path fill="#ed1c24" d="M76.672 59.105c-.082-.167-.25-.375-.125-.539l.414.04z"/>
  <path fill="none" stroke="#ed1c24" stroke-width=".1041" d="M76.672 59.105c-.082-.167-.25-.375-.125-.539l.414.04Zm0 0"/>
  <path fill="#ed1c24" stroke="#ed1c24" stroke-width=".1041" d="m74.633 66.43-.168-.332h.457Zm0 0"/>
  <path fill="#ed1c24" d="M73.883 67.68c-.082-.207-.25-.5-.168-.625h.5z"/>
  <path fill="none" stroke="#ed1c24" stroke-width=".1041" d="M73.883 67.68c-.082-.207-.25-.5-.168-.625h.5Zm0 0"/>
  <path fill="#ed1c24" stroke="#ed1c24" stroke-width=".1041" d="m73.965 69.719.207-.414.125.37Zm0 0"/>
  <path fill="#ed1c24" d="M78.793 75.172c-.164.168-.332.293-.332.539-.125-.082-.207-.332-.25-.496a.7.7 0 0 1 .582-.043"/>
  <path fill="none" stroke="#ed1c24" stroke-width=".1041" d="M78.793 75.172c-.164.168-.332.293-.332.539-.125-.082-.207-.332-.25-.496a.7.7 0 0 1 .582-.043Zm0 0"/>
  <path fill="#ed1c24" d="m78.336 77.46-.5-.167c0-.125.25-.29.375-.414 0 .164 0 .414.125.582"/>
  <path fill="none" stroke="#ed1c24" stroke-width=".1041" d="m78.336 77.46-.5-.167c0-.125.25-.29.375-.414 0 .164 0 .414.125.582Zm0 0"/>
  <path fill="#ed1c24" d="m85.91 78-.332-.332a.7.7 0 0 1 .5-.207z"/>
  <path fill="none" stroke="#ed1c24" stroke-width=".1041" d="m85.91 78-.332-.332a.7.7 0 0 1 .5-.207Zm0 0"/>
  <path fill="#ed1c24" d="M79.004 79.043c-.086.043-.375.043-.543 0l.25-.582z"/>
  <path fill="none" stroke="#ed1c24" stroke-width=".1041" d="M79.004 79.043c-.086.043-.375.043-.543 0l.25-.582Zm0 0"/>
  <path fill="#ed1c24" d="M85.91 79.832c-.039-.164.086-.332.168-.5l.29.543z"/>
  <path fill="none" stroke="#ed1c24" stroke-width=".1041" d="M85.91 79.832c-.039-.164.086-.332.168-.5l.29.543Zm0 0"/>
  <path fill="#ed1c24" stroke="#ed1c24" stroke-width=".1041" d="m87.578 80.914-.125-.5.496.168Zm0 0"/>
  <path fill="#fff" d="M105.184 41.5c1.414 2.746.832 6.578-1.332 8.781-2.207 2.457-5.704 3.29-8.825 2.164-2.414-.87-4.578-3.246-5.039-5.742-.664-3.457.625-6.742 3.582-8.617 2.332-1.582 6.075-1.621 8.45-.082 1.332.789 2.539 2.121 3.164 3.496m-8.118-2.871c-1.664.207-3.207 1-4.203 2.453.914.668 1.79 1.418 2.79 2 .456-.625 1.12-.918 1.827-1.082Zm1.707 0c-.168 1.125-.293 2.289-.418 3.41.707.086 1.29.5 1.79 1.082.957-.582 1.875-1.371 2.789-2.121-1.082-1.332-2.496-2.207-4.16-2.371m1.872 5.117c.21.711.125 1.543-.04 2.207l3.079 1.25.125-.043c.539-1.414.625-3.328-.082-4.703-1.043.418-2.082.832-3.082 1.29m-8.7-1.246c-.582 1.414-.707 3.41 0 4.828 1.082-.418 2.125-.832 3.164-1.332-.207-.668-.207-1.582 0-2.207Zm8.243 4.16c-.5.625-1.165.918-1.872 1.082.121 1.168.29 2.29.496 3.371 1.208-.125 2.25-.625 3.165-1.414.375-.293.793-.625.918-1.082a68 68 0 0 0-2.707-1.957m-4.622.082-2.62 2-.044.125c1.125 1.332 2.582 2.164 4.246 2.332.082-1.125.293-2.25.293-3.37a4.3 4.3 0 0 1-1.125-.462c-.25-.164-.5-.457-.75-.625"/>
  <path fill="none" stroke="#000" stroke-width=".31220000000000003" d="M105.184 41.5c1.414 2.746.832 6.578-1.332 8.781-2.207 2.457-5.704 3.29-8.825 2.164-2.414-.87-4.578-3.246-5.039-5.742-.664-3.457.625-6.742 3.582-8.617 2.332-1.582 6.075-1.621 8.45-.082 1.332.789 2.539 2.121 3.164 3.496Zm-8.118-2.871c-1.664.207-3.207 1-4.203 2.453.914.668 1.79 1.418 2.79 2 .456-.625 1.12-.918 1.827-1.082Zm1.707 0c-.168 1.125-.293 2.289-.418 3.41.707.086 1.29.5 1.79 1.082.957-.582 1.875-1.371 2.789-2.121-1.082-1.332-2.496-2.207-4.16-2.371Zm1.872 5.117c.21.711.125 1.543-.04 2.207l3.079 1.25.125-.043c.539-1.414.625-3.328-.082-4.703-1.043.418-2.082.832-3.082 1.29Zm-8.7-1.246c-.582 1.414-.707 3.41 0 4.828 1.082-.418 2.125-.832 3.164-1.332-.207-.668-.207-1.582 0-2.207Zm8.243 4.16c-.5.625-1.165.918-1.872 1.082.121 1.168.29 2.29.496 3.371 1.208-.125 2.25-.625 3.165-1.414.375-.293.793-.625.918-1.082a68 68 0 0 0-2.707-1.957Zm-4.622.082-2.62 2-.044.125c1.125 1.332 2.582 2.164 4.246 2.332.082-1.125.293-2.25.293-3.37a4.3 4.3 0 0 1-1.125-.462c-.25-.164-.5-.457-.75-.625Zm0 0"/>
  <path fill="#ed1c24" d="M97.254 44.89a.577.577 0 1 1 1.156 0 .577.577 0 1 1-1.156 0"/>
  <path fill="none" stroke="#000" stroke-width=".31220000000000003" d="M97.254 44.89a.577.577 0 1 1 1.156 0 .577.577 0 1 1-1.156 0Zm0 0"/>
  <path fill="#231f20" d="M190.469 48.246V33.93h2.89v6.36l5.84-6.36h3.887l-5.39 5.578 5.683 8.738h-3.738l-3.938-6.719-2.344 2.395v4.324zM207.031 43.063q0 1.542.735 2.363.732.82 1.804.82c.72 0 1.317-.273 1.801-.82.488-.547.73-1.344.73-2.383q.001-1.524-.73-2.344-.724-.82-1.8-.82-1.074 0-1.805.82c-.489.547-.735 1.332-.735 2.364m-2.812-.149q0-1.366.676-2.644a4.6 4.6 0 0 1 1.91-1.954c.82-.449 1.742-.675 2.757-.675q2.35.002 3.856 1.527 1.505 1.531 1.504 3.863-.001 2.355-1.52 3.903-1.517 1.546-3.82 1.546-1.429 0-2.723-.644a4.4 4.4 0 0 1-1.964-1.887q-.675-1.248-.676-3.035M215.871 37.875h1.524v-.781q-.002-1.308.277-1.953c.183-.43.527-.778 1.023-1.047.5-.274 1.13-.407 1.89-.407q1.173 0 2.298.352l-.371 1.914a5.4 5.4 0 0 0-1.262-.156q-.593.001-.855.277-.258.28-.258 1.07v.731h2.05v2.16h-2.05v8.211h-2.742v-8.21h-1.524zM223.73 48.246V37.875h2.747v10.371Zm0-11.777v-2.54h2.747v2.54zM238.723 48.246h-2.746v-5.293c0-1.117-.059-1.844-.176-2.172a1.52 1.52 0 0 0-.57-.765c-.262-.184-.583-.274-.954-.274-.472 0-.902.13-1.277.39a1.96 1.96 0 0 0-.777 1.036q-.211.644-.211 2.383v4.695h-2.742V37.875h2.546v1.523q1.361-1.757 3.418-1.757.91 0 1.66.328.756.327 1.137.836.387.505.54 1.152.151.644.152 1.844zM247.227 43.266q-.527.175-1.668.422-1.144.241-1.496.476c-.36.254-.536.578-.536.969q-.002.575.43.996.426.417 1.094.418c.492 0 .965-.16 1.414-.488q.498-.371.656-.907.106-.35.106-1.34Zm-3.672-2.227-2.489-.45q.419-1.5 1.446-2.226 1.025-.721 3.047-.722 1.832-.001 2.734.437.897.434 1.266 1.102.363.668.363 2.457l-.027 3.203q0 1.365.128 2.015.134.652.497 1.391h-2.715a9 9 0 0 1-.266-.809 4 4 0 0 0-.098-.324 5 5 0 0 1-1.504 1.028 4.3 4.3 0 0 1-1.707.34q-1.603 0-2.527-.868c-.613-.582-.922-1.312-.922-2.199q0-.88.422-1.566a2.73 2.73 0 0 1 1.176-1.055q.754-.367 2.184-.64c1.28-.239 2.171-.465 2.664-.673v-.273q0-.793-.391-1.129-.388-.337-1.473-.336-.733-.002-1.144.29c-.274.19-.492.527-.664 1.007M262.063 48.246h-2.747v-5.293c0-1.117-.058-1.844-.175-2.172a1.5 1.5 0 0 0-.57-.765c-.262-.184-.583-.274-.954-.274-.472 0-.902.13-1.277.39a1.96 1.96 0 0 0-.777 1.036q-.211.644-.211 2.383v4.695h-2.743V37.875h2.547v1.523q1.36-1.757 3.418-1.757.91 0 1.66.328.756.327 1.137.836.387.505.54 1.152.15.644.151 1.844zM263.742 48.246V46.11l3.887-4.464a36 36 0 0 1 1.414-1.551c-.316.02-.738.031-1.258.039l-3.664.02v-2.278h8.574v1.945l-3.965 4.57-1.394 1.512a39 39 0 0 1 1.414-.066H273v2.41zM274.844 48.246V37.875h2.746v10.371Zm0-11.777v-2.54h2.746v2.54zM286.563 42.172q-.029-1.19-.614-1.813a1.9 1.9 0 0 0-1.426-.617q-.9.001-1.484.653c-.39.437-.586 1.03-.578 1.777Zm-.157 2.773 2.735.461c-.352 1-.907 1.766-1.664 2.29q-1.137.784-2.848.784-2.702-.001-4.004-1.765-1.025-1.418-1.023-3.574 0-2.58 1.347-4.04 1.349-1.459 3.406-1.46 2.315.002 3.653 1.527 1.34 1.53 1.281 4.684h-6.875c.02.816.238 1.449.664 1.902q.634.675 1.582.676.645 0 1.082-.352.44-.35.664-1.133M294.152 48.246h-2.746V37.875h2.551v1.477c.434-.7.828-1.157 1.176-1.38a2.2 2.2 0 0 1 1.187-.331q.938-.001 1.805.52l-.848 2.39c-.464-.297-.894-.45-1.289-.45q-.578 0-.976.317c-.27.215-.477.598-.63 1.148q-.231.833-.23 3.477zM304.063 37.875v2.188h-1.875v4.18q0 1.27.054 1.48t.242.347q.196.136.465.137.38-.001 1.106-.266l.234 2.13q-.96.41-2.168.41-.743 0-1.34-.25-.592-.249-.875-.641-.276-.398-.383-1.07-.088-.48-.09-1.934v-4.523h-1.257v-2.188h1.258v-2.059l2.753-1.601v3.66zM314.375 48.246l-4.18-10.371h2.883l1.953 5.293.567 1.77q.223-.675.28-.891a39 39 0 0 1 .294-.879l1.973-5.293h2.824l-4.121 10.371zM324.824 43.063q0 1.542.735 2.363.733.82 1.804.82 1.074 0 1.801-.82c.488-.547.73-1.344.73-2.383q.001-1.524-.73-2.344-.728-.82-1.8-.82-1.074 0-1.805.82c-.489.547-.735 1.332-.735 2.364m-2.812-.149q0-1.366.675-2.644a4.6 4.6 0 0 1 1.91-1.954q1.233-.674 2.758-.675c1.567 0 2.856.511 3.856 1.527q1.505 1.531 1.504 3.863c0 1.57-.504 2.871-1.52 3.903q-1.517 1.546-3.82 1.546-1.429 0-2.723-.644a4.4 4.4 0 0 1-1.964-1.887q-.675-1.248-.676-3.035M334.66 37.875h2.527v1.418q1.36-1.652 3.235-1.652.995 0 1.726.41.734.41 1.204 1.242.68-.833 1.472-1.242a3.6 3.6 0 0 1 1.692-.41q1.142.001 1.933.464c.528.31.922.762 1.18 1.364q.286.66.285 2.148v6.63h-2.746V42.32q0-1.546-.281-1.992-.381-.585-1.172-.586c-.387 0-.746.117-1.086.352q-.509.352-.73 1.027-.228.68-.227 2.145v4.98h-2.742v-5.684q-.001-1.512-.149-1.953-.147-.44-.453-.652-.31-.216-.836-.215c-.422 0-.805.113-1.14.34q-.509.345-.73.988-.219.643-.22 2.137v5.04h-2.742zM190.508 72.246v-14.2h2.89v11.79h7.188v2.41zM208.352 67.266q-.529.175-1.672.421-1.142.24-1.493.477-.539.382-.539.969.001.575.43.996c.29.277.652.418 1.094.418.496 0 .969-.16 1.418-.488.332-.246.55-.551.652-.907q.11-.35.11-1.34Zm-3.672-2.227-2.493-.45q.422-1.5 1.446-2.226 1.025-.721 3.047-.722 1.838-.001 2.734.437c.602.29 1.02.656 1.266 1.102q.368.668.367 2.457l-.031 3.203q0 1.365.132 2.015c.086.434.254.899.493 1.391h-2.715c-.07-.18-.16-.453-.262-.808a7 7 0 0 0-.098-.325 5 5 0 0 1-1.504 1.028 4.3 4.3 0 0 1-1.71.34q-1.602 0-2.524-.868c-.613-.582-.922-1.312-.922-2.199q0-.88.418-1.566a2.74 2.74 0 0 1 1.18-1.055q.755-.367 2.18-.64c1.285-.239 2.171-.466 2.668-.673v-.273c0-.527-.133-.906-.391-1.129q-.393-.337-1.477-.336-.731-.002-1.14.29-.412.286-.664 1.007M223.184 72.246h-2.743v-5.293c0-1.117-.058-1.844-.175-2.172a1.5 1.5 0 0 0-.575-.765q-.392-.275-.949-.274-.713 0-1.281.39a1.98 1.98 0 0 0-.777 1.036q-.206.644-.207 2.383v4.695h-2.747V61.875h2.551v1.523q1.355-1.757 3.418-1.757c.606 0 1.156.109 1.66.328q.75.326 1.137.836.388.505.535 1.152.153.644.153 1.844zM228.156 66.836q0 1.664.457 2.402.668 1.077 1.856 1.075.947-.001 1.613-.805.663-.809.664-2.406 0-1.788-.644-2.575-.644-.785-1.653-.785-.973-.001-1.637.778-.656.774-.656 2.316m7.324 5.41h-2.55v-1.523q-.634.89-1.496 1.324a3.9 3.9 0 0 1-1.746.433q-1.787 0-3.06-1.44-1.275-1.438-1.276-4.017 0-2.636 1.242-4.007 1.237-1.376 3.133-1.375 1.741.002 3.007 1.445V57.93h2.746zM246.66 63.984h2.14c1.387 0 2.25-.058 2.598-.175.344-.118.614-.317.809-.606q.293-.428.293-1.074c0-.48-.129-.871-.387-1.164q-.382-.446-1.086-.563-.351-.051-2.109-.05h-2.258Zm-2.89 8.262V57.93h6.085q2.294 0 3.333.386 1.042.387 1.667 1.371c.415.66.625 1.41.625 2.258q0 1.612-.949 2.66-.944 1.05-2.832 1.325.937.546 1.547 1.199c.41.437.957 1.21 1.649 2.324l1.746 2.793h-3.457l-2.09-3.113q-1.113-1.671-1.524-2.106-.41-.434-.867-.597-.462-.16-1.457-.16h-.586v5.976zM260.918 57.93v5.265q1.33-1.553 3.176-1.554.944 0 1.707.351.761.353 1.148.899.387.55.528 1.21c.093.446.14 1.13.14 2.063v6.082h-2.742V66.77c0-1.09-.055-1.778-.156-2.07a1.36 1.36 0 0 0-.555-.7c-.262-.172-.594-.258-.988-.258q-.684 0-1.223.332c-.355.219-.617.555-.785 1-.164.446-.25 1.106-.25 1.977v5.195h-2.742V57.93zM276.563 66.172q-.029-1.19-.614-1.813a1.9 1.9 0 0 0-1.426-.617q-.9.001-1.484.653c-.39.437-.586 1.03-.578 1.777Zm-.157 2.773 2.735.461q-.528 1.502-1.664 2.29-1.137.784-2.848.784-2.702-.001-4.004-1.765-1.025-1.418-1.023-3.574 0-2.58 1.347-4.04 1.349-1.459 3.406-1.46 2.315.002 3.653 1.527 1.34 1.53 1.281 4.684h-6.875c.02.816.238 1.449.664 1.902q.634.675 1.582.676.645 0 1.082-.352.44-.35.664-1.133M281.523 72.246V61.875h2.747v10.371Zm0-11.777v-2.54h2.747v2.54zM296.516 72.246h-2.746v-5.293c0-1.117-.06-1.844-.176-2.172a1.52 1.52 0 0 0-.57-.765c-.262-.184-.583-.274-.954-.274-.472 0-.902.13-1.277.39a1.96 1.96 0 0 0-.777 1.036q-.211.644-.211 2.383v4.695h-2.743V61.875h2.547v1.523q1.361-1.757 3.418-1.757.91 0 1.66.328.756.326 1.137.836.387.505.54 1.152.151.644.152 1.844zM299.297 72.246V57.93h2.746v14.316zM310.578 67.266q-.528.175-1.672.421-1.141.24-1.492.477-.54.382-.539.969.001.575.43.996.433.417 1.093.418c.497 0 .97-.16 1.418-.488.332-.246.551-.551.653-.907.07-.234.11-.68.11-1.34Zm-3.672-2.227-2.492-.45q.421-1.5 1.445-2.226 1.026-.721 3.047-.722 1.84-.001 2.735.437c.601.29 1.02.656 1.265 1.102.242.445.367 1.265.367 2.457l-.03 3.203q-.002 1.365.132 2.015.135.652.492 1.391h-2.715c-.07-.18-.16-.453-.261-.808a7 7 0 0 0-.098-.325 5 5 0 0 1-1.504 1.028 4.3 4.3 0 0 1-1.71.34q-1.6 0-2.524-.868c-.618-.582-.922-1.312-.922-2.199q0-.88.418-1.566a2.75 2.75 0 0 1 1.176-1.055q.76-.367 2.183-.64 1.926-.36 2.668-.673v-.273c0-.527-.133-.906-.39-1.129q-.393-.337-1.477-.336-.731-.002-1.14.29-.412.286-.665 1.007M325.41 72.246h-2.742v-5.293c0-1.117-.059-1.844-.176-2.172a1.52 1.52 0 0 0-.57-.765q-.398-.275-.953-.274-.715 0-1.281.39a1.98 1.98 0 0 0-.778 1.036q-.206.644-.207 2.383v4.695h-2.746V61.875h2.55v1.523q1.356-1.757 3.419-1.757.906 0 1.66.328.75.326 1.137.836.386.505.539 1.152.147.644.148 1.844zM330.383 66.836q0 1.664.457 2.402.666 1.077 1.855 1.075c.633 0 1.168-.27 1.614-.805q.663-.809.664-2.406 0-1.788-.645-2.575-.644-.785-1.652-.785-.975-.001-1.637.778-.656.774-.656 2.316m7.324 5.41h-2.55v-1.523q-.635.89-1.5 1.324a3.84 3.84 0 0 1-1.743.433q-1.785 0-3.062-1.44-1.273-1.438-1.274-4.017 0-2.636 1.242-4.007 1.239-1.376 3.133-1.375 1.741.002 3.008 1.445V57.93h2.746zM340.098 68.43v-2.746h5.39v2.746zM349.98 60.352v4.062h1.582q1.712 0 2.286-.223.578-.228.906-.703.323-.48.324-1.113 0-.785-.457-1.29a2 2 0 0 0-1.164-.636q-.518-.095-2.078-.097Zm-2.89 11.894V57.93h4.64q2.636.002 3.438.215 1.231.322 2.059 1.402.832 1.078.832 2.789 0 1.318-.48 2.215-.477.9-1.216 1.414-.738.51-1.5.676-1.032.206-2.996.207h-1.887v5.398zM359.21 61.875h1.524v-.781c0-.871.09-1.524.278-1.953.183-.43.527-.778 1.023-1.047q.75-.409 1.89-.407 1.173 0 2.298.352l-.371 1.914a5.4 5.4 0 0 0-1.262-.156q-.592.001-.856.277-.257.28-.257 1.07v.731h2.05v2.16h-2.05v8.211h-2.743v-8.21h-1.523zM372.793 67.266q-.526.175-1.668.421-1.144.24-1.496.477-.535.382-.535.969c0 .383.14.715.43.996q.427.417 1.093.418c.492 0 .965-.16 1.414-.488.332-.246.551-.551.656-.907q.106-.35.106-1.34Zm-3.672-2.227-2.488-.45c.277-1 .762-1.741 1.445-2.226q1.026-.721 3.047-.722 1.834-.001 2.734.437.898.434 1.262 1.102.368.668.367 2.457l-.027 3.203q-.001 1.365.133 2.015.129.652.492 1.391h-2.715a9 9 0 0 1-.266-.808 4 4 0 0 0-.097-.325 5 5 0 0 1-1.504 1.028 4.3 4.3 0 0 1-1.707.34q-1.603 0-2.527-.868c-.614-.582-.922-1.312-.922-2.199q0-.88.422-1.566a2.73 2.73 0 0 1 1.175-1.055q.755-.367 2.184-.64c1.281-.239 2.172-.466 2.664-.673v-.273c0-.527-.129-.906-.39-1.129q-.388-.337-1.473-.336-.734-.002-1.145.29-.41.286-.664 1.007M378.195 72.246V57.93h2.743v14.316zM382.648 72.246V70.11l3.887-4.464a36 36 0 0 1 1.414-1.551c-.316.02-.738.031-1.258.039l-3.664.02v-2.278h8.575v1.945l-3.965 4.57-1.395 1.512a39 39 0 0 1 1.414-.066h4.25v2.41z"/>
  <use xlink:href="#e" x="277.953" y="25.493" fill="#231f20"/>
</svg>
